<?xml version="1.0" encoding="UTF-8" standalone="no"?>
<!-- Created with Inkscape (http://www.inkscape.org/) -->

<svg
   inkscape:export-ydpi="90.000000"
   inkscape:export-xdpi="90.000000"
   inkscape:export-filename="/home/jimmac/src/cvs/gnome/gimp/themes/Default/images/stock-layers-16.png"
   width="16"
   height="16"
   id="svg11300"
   sodipodi:version="0.32"
   inkscape:version="1.4.2 (ebf0e940d0, 2025-05-08)"
   sodipodi:docname="gimp-tool-free-select.svg"
   version="1.0"
   viewBox="0 0 16 16"
   xmlns:inkscape="http://www.inkscape.org/namespaces/inkscape"
   xmlns:sodipodi="http://sodipodi.sourceforge.net/DTD/sodipodi-0.dtd"
   xmlns:xlink="http://www.w3.org/1999/xlink"
   xmlns="http://www.w3.org/2000/svg"
   xmlns:svg="http://www.w3.org/2000/svg"
   xmlns:rdf="http://www.w3.org/1999/02/22-rdf-syntax-ns#"
   xmlns:cc="http://creativecommons.org/ns#"
   xmlns:dc="http://purl.org/dc/elements/1.1/">
  <sodipodi:namedview
     inkscape:cy="10.067268"
     inkscape:cx="7.6795188"
     inkscape:zoom="23.243644"
     inkscape:window-height="768"
     inkscape:window-width="1366"
     inkscape:pageshadow="2"
     inkscape:pageopacity="0.0"
     borderopacity="0.17254902"
     bordercolor="#666"
     pagecolor="#ffffff"
     id="base"
     inkscape:showpageshadow="false"
     showborder="true"
     inkscape:window-x="0"
     inkscape:window-y="0"
     inkscape:current-layer="layer2"
     width="16px"
     height="16px"
     showgrid="true"
     inkscape:window-maximized="1"
     inkscape:document-units="px"
     inkscape:snap-global="false"
     showguides="false"
     inkscape:pagecheckerboard="0"
     inkscape:deskcolor="#d1d1d1">
    <inkscape:grid
       type="xygrid"
       id="grid4043"
       originx="0"
       originy="0"
       spacingy="1"
       spacingx="1"
       units="px" />
  </sodipodi:namedview>
  <defs
     id="defs3">
    <linearGradient
       id="linearGradient6"
       inkscape:collect="always">
      <stop
         style="stop-color:#9a823e;stop-opacity:0.81176472;"
         offset="0"
         id="stop6" />
      <stop
         style="stop-color:#8d784e;stop-opacity:1;"
         offset="1"
         id="stop7" />
    </linearGradient>
    <linearGradient
       id="linearGradient3"
       inkscape:collect="always">
      <stop
         style="stop-color:#9a823e;stop-opacity:0.8134042;"
         offset="0"
         id="stop3" />
      <stop
         style="stop-color:#8d784e;stop-opacity:1;"
         offset="1"
         id="stop4" />
    </linearGradient>
    <linearGradient
       inkscape:collect="always"
       xlink:href="#linearGradient3"
       id="linearGradient4"
       x1="0.92529795"
       y1="8.3677737"
       x2="14.75603"
       y2="8.3677737"
       gradientUnits="userSpaceOnUse" />
    <linearGradient
       inkscape:collect="always"
       xlink:href="#linearGradient6"
       id="linearGradient7"
       x1="0.92605214"
       y1="8.3241884"
       x2="14.75027"
       y2="8.3241884"
       gradientUnits="userSpaceOnUse" />
  </defs>
  <sodipodi:namedview
     stroke="#ef2929"
     fill="#eeeeec"
     pagecolor="#ffffff"
     bordercolor="#666666"
     borderopacity="0.25490196"
     inkscape:pageopacity="0.0"
     inkscape:pageshadow="2"
     inkscape:zoom="1"
     inkscape:cx="-14.198652"
     inkscape:cy="-5.1663457"
     inkscape:current-layer="layer1"
     showgrid="false"
     inkscape:grid-bbox="true"
     inkscape:document-units="px"
     inkscape:showpageshadow="false"
     inkscape:window-width="872"
     inkscape:window-height="659"
     inkscape:window-x="403"
     inkscape:window-y="296"
     width="32px"
     height="32px"
     id="namedview73" />
  <metadata
     id="metadata4">
    <rdf:RDF>
      <cc:Work
         rdf:about="">
        <dc:format>image/svg+xml</dc:format>
        <dc:type
           rdf:resource="http://purl.org/dc/dcmitype/StillImage" />
        <dc:creator>
          <cc:Agent>
            <dc:title>Jakub Steiner</dc:title>
          </cc:Agent>
        </dc:creator>
        <dc:source>http://jimmac.musichall.cz</dc:source>
        <cc:license
           rdf:resource="http://creativecommons.org/licenses/by-sa/2.0/" />
      </cc:Work>
      <cc:License
         rdf:about="http://creativecommons.org/licenses/by-sa/2.0/">
        <cc:permits
           rdf:resource="http://web.resource.org/cc/Reproduction" />
        <cc:permits
           rdf:resource="http://web.resource.org/cc/Distribution" />
        <cc:requires
           rdf:resource="http://web.resource.org/cc/Notice" />
        <cc:requires
           rdf:resource="http://web.resource.org/cc/Attribution" />
        <cc:permits
           rdf:resource="http://web.resource.org/cc/DerivativeWorks" />
        <cc:requires
           rdf:resource="http://web.resource.org/cc/ShareAlike" />
      </cc:License>
    </rdf:RDF>
  </metadata>
  <g
     inkscape:groupmode="layer"
     id="layer2"
     inkscape:label="Layer 1">
    <path
       style="display:inline;fill:none;stroke:url(#linearGradient4);stroke-width:0.9;stroke-linecap:round;stroke-linejoin:round;stroke-dasharray:none;paint-order:stroke fill markers"
       d="m 5.6359493,15.272992 c 0,0 1.1261866,-1.120123 0.7744053,-2.839486 C 6.0276282,10.562897 3.464099,9.4467236 3.5708686,8.4324127 3.7429587,6.7975571 5.9444407,7.3538769 5.8510619,8.6905478 5.7970293,9.463997 4.9906116,10.712606 3.8290037,10.497493 2.6673959,10.282381 2.2532533,9.3918455 2.4092608,8.9917053 3.1505786,7.0903157 4.6904201,10.040797 9.550998,9.3789081 11.507204,9.1125219 14.559099,7.4296397 14.283475,4.8615441 13.950518,1.7592545 9.9899688,1.366321 8.0021876,1.3767204 5.2559761,1.3910877 1.2906754,3.3127335 1.3767205,5.8510619 1.4615345,8.3530766 3.2697111,8.8626378 3.2697111,8.8626378"
       id="path2"
       sodipodi:nodetypes="csssssssssc"
       inkscape:label="lasso" />
    <path
       style="baseline-shift:baseline;display:none;overflow:visible;opacity:1;fill:url(#linearGradient7);stroke:#000000;stroke-width:0;stroke-linecap:round;stroke-linejoin:round;stroke-dasharray:none;stroke-opacity:1;paint-order:fill markers stroke;enable-background:accumulate;stop-color:#000000;stop-opacity:1"
       d="M 8,0.92578125 C 6.52307,0.93350808 4.7936126,1.4363154 3.3945313,2.28125 1.9954499,3.1261846 0.87665199,4.3602583 0.92773438,5.8671875 0.97377469,7.2253777 1.5076371,8.1099433 2.0449219,8.6210938 c 0.028394,0.027012 0.03013,0.010058 0.058594,0.035156 -0.031637,0.06421 -0.085788,0.1013577 -0.1132812,0.171875 -0.1679973,0.4308926 -0.021909,0.8687348 0.2773437,1.2597662 0.2992526,0.39103 0.7978023,0.725504 1.4785157,0.851562 0.3712586,0.06875 0.7200439,0.0162 1.0292968,-0.107422 0.5222364,0.531868 1.0672947,1.075254 1.1933594,1.691407 0.3062825,1.496983 -0.6503906,2.429687 -0.6503906,2.429687 a 0.44999999,0.44999999 0 0 0 -0.00195,0.636719 0.44999999,0.44999999 0 0 0 0.6367188,0.002 c 0,0 1.2957176,-1.306305 0.8984375,-3.248047 -0.1769176,-0.8647 -0.7213733,-1.505995 -1.2734375,-2.068359 0.00215,-0.0023 0.00568,-0.0036 0.00781,-0.0059 C 5.7656062,10.075438 5.7721551,9.8371985 5.8867187,9.6171875 6.8768394,9.8653362 8.0413319,10.038013 9.6113281,9.8242188 10.683964,9.6781526 11.98687,9.1708967 13.035156,8.3359375 14.083443,7.5009783 14.8882,6.2840929 14.730469,4.8144531 14.544003,3.0770764 13.291694,2.0498899 11.921875,1.53125 10.552056,1.0126101 9.0251041,0.92041825 8,0.92578125 Z M 8.00391,1.8261719 c 0.9626771,-0.00504 2.408969,0.096076 3.59961,0.546875 1.19064,0.4507994 2.085931,1.1721965 2.232422,2.5371093 C 13.953835,6.0086121 13.37242,6.9157571 12.474613,7.6308594 11.576803,8.3459617 10.373804,8.8132737 9.4902344,8.9335938 8.1420553,9.117182 7.1311142,8.9968892 6.265625,8.7988281 6.2684676,8.7728063 6.298975,8.748512 6.3007812,8.7226563 6.3649061,7.8047405 5.6433598,7.1407008 4.890625,7.0039062 4.5142576,6.935509 4.1013171,6.9894481 3.7578125,7.2246094 3.5425753,7.3719595 3.4724172,7.6831017 3.359375,7.9511719 3.2921245,7.943626 3.2215248,7.89234 3.1523438,7.8925781 3.0202463,7.8930329 2.8964602,7.9815617 2.7636719,8.03125 2.7138911,7.9911428 2.718299,8.0184903 2.6660156,7.96875 2.2780086,7.5996162 1.8649456,6.979762 1.8261719,5.8359375 1.7912092,4.8045383 2.6107644,3.8067966 3.859375,3.0527344 5.1079856,2.2986722 6.7346248,1.8328123 8.0039063,1.8261719 Z M 4.7304687,7.890625 C 5.021442,7.9435036 5.1763579,8.2160241 5.2617187,8.5 5.0554425,8.4280472 4.7787345,8.3703979 4.5976562,8.3007813 4.4362704,8.2387355 4.3095482,8.2335796 4.1640625,8.1777344 4.2029124,8.1197323 4.2203791,7.999109 4.2675781,7.9667969 4.3823336,7.8882359 4.5466267,7.8572154 4.7304687,7.890625 Z M 2.8515625,9.1132813 c 0.070368,0.027282 0.296875,0.1816406 0.296875,0.1816406 A 0.44999999,0.44999999 0 0 0 3.4238281,9.140625 c 0.070894,0.1152782 0.059968,0.2676661 0.1464844,0.3710938 0.137831,0.1647722 0.3206209,0.3258106 0.4863281,0.4863281 -0.055537,-0.00111 -0.087541,0.067556 -0.1464843,0.056641 C 3.4292618,9.9656332 3.1416407,9.7490656 2.9824219,9.5410156 2.823203,9.3329657 2.8401148,9.1235445 2.828125,9.1542969 c 0.00964,-0.02472 0.013954,-0.019531 0.023437,-0.041016 z m 1.7011719,0.109375 C 4.6934222,9.2752936 4.9033591,9.3191564 5.0625,9.3730469 5.0097196,9.4598684 5.0132079,9.5387548 4.9472656,9.6152344 4.7963101,9.4726174 4.6760522,9.3476429 4.5527344,9.2226563 Z"
       id="path1"
       inkscape:label="lasso" />
  </g>
</svg>
