<?xml version="1.0" encoding="UTF-8" standalone="no"?>
<svg
   width="24"
   height="24"
   viewBox="0 0 24 24"
   fill="none"
   version="1.1"
   id="svg7"
   sodipodi:docname="gimp-tool-text.svg"
   xml:space="preserve"
   inkscape:version="1.4.2 (ebf0e940d0, 2025-05-08)"
   xmlns:inkscape="http://www.inkscape.org/namespaces/inkscape"
   xmlns:sodipodi="http://sodipodi.sourceforge.net/DTD/sodipodi-0.dtd"
   xmlns:xlink="http://www.w3.org/1999/xlink"
   xmlns="http://www.w3.org/2000/svg"
   xmlns:svg="http://www.w3.org/2000/svg"><sodipodi:namedview
     id="namedview7"
     pagecolor="#ffffff"
     bordercolor="#000000"
     borderopacity="0.25"
     inkscape:showpageshadow="2"
     inkscape:pageopacity="0.0"
     inkscape:pagecheckerboard="0"
     inkscape:deskcolor="#d1d1d1"
     inkscape:zoom="10.189826"
     inkscape:cx="-1.1776452"
     inkscape:cy="23.111288"
     inkscape:window-width="1366"
     inkscape:window-height="768"
     inkscape:window-x="0"
     inkscape:window-y="0"
     inkscape:window-maximized="1"
     inkscape:current-layer="svg7" /><defs
     id="defs7"><linearGradient
       id="linearGradient5"
       inkscape:collect="always"><stop
         style="stop-color:#0a0a0a;stop-opacity:1;"
         offset="0.00087998"
         id="stop8" /><stop
         style="stop-color:#111111;stop-opacity:1;"
         offset="0.27294385"
         id="stop1" /><stop
         style="stop-color:#4b4b4b;stop-opacity:1;"
         offset="1"
         id="stop9" /></linearGradient><filter
       id="filter0_f_86_239"
       x="4"
       y="18.75"
       width="16"
       height="5.5"
       filterUnits="userSpaceOnUse"
       color-interpolation-filters="sRGB"><feFlood
         flood-opacity="0"
         result="BackgroundImageFix"
         id="feFlood4" /><feBlend
         mode="normal"
         in="SourceGraphic"
         in2="BackgroundImageFix"
         result="shape"
         id="feBlend4" /><feGaussianBlur
         stdDeviation="1"
         result="effect1_foregroundBlur_86_239"
         id="feGaussianBlur4" /></filter><linearGradient
       id="paint0_linear_86_239"
       x1="11.7756"
       y1="12.77"
       x2="7.64316"
       y2="5.67184"
       gradientUnits="userSpaceOnUse"><stop
         stop-color="#1F1F1F"
         id="stop4" /><stop
         offset="1"
         stop-color="#5C5C5C"
         id="stop5" /></linearGradient><linearGradient
       id="paint1_linear_86_239"
       x1="10.2165"
       y1="8.97371"
       x2="12.0989"
       y2="10.4457"
       gradientUnits="userSpaceOnUse"><stop
         stop-color="white"
         id="stop6" /><stop
         offset="1"
         stop-color="#B3B3B3"
         stop-opacity="0"
         id="stop7" /></linearGradient><clipPath
       id="clip0_86_239"><rect
         width="22"
         height="22"
         fill="white"
         transform="translate(1 1)"
         id="rect7" /></clipPath><radialGradient
       inkscape:collect="always"
       xlink:href="#linearGradient5"
       id="radialGradient9"
       cx="19.715561"
       cy="23.616907"
       fx="19.715561"
       fy="23.616907"
       r="16.0905"
       gradientTransform="matrix(-1.4428061,-0.66723326,0.68322928,-1.4773953,33.769323,71.400131)"
       gradientUnits="userSpaceOnUse" /><filter
       inkscape:collect="always"
       style="color-interpolation-filters:sRGB"
       id="filter2"
       x="-0.13681274"
       y="-1.633705"
       width="1.2736255"
       height="4.26741"><feGaussianBlur
         inkscape:collect="always"
         stdDeviation="1.1356501"
         id="feGaussianBlur2" /></filter></defs><rect
     style="display:none;fill:#1b1b1b;fill-opacity:1;stroke:none;stroke-width:0.621;stroke-linejoin:round;stroke-dasharray:none;stroke-opacity:1;paint-order:markers stroke fill"
     id="rect1"
     width="32.090832"
     height="29.539268"
     x="-2.944113"
     y="-1.7664678" /><ellipse
     style="opacity:0.640684;mix-blend-mode:normal;fill:#000000;fill-opacity:1;stroke:none;stroke-width:1.5;stroke-linecap:round;stroke-linejoin:round;stroke-dasharray:none;filter:url(#filter2)"
     id="ellipse2"
     cx="14.377086"
     cy="28.508827"
     rx="9.9609156"
     ry="0.83416539"
     transform="matrix(0.54360147,0,0,1,10.487165,-6.9677343)"
     inkscape:label="shadow 2" /><ellipse
     style="opacity:0.640684;mix-blend-mode:normal;fill:#000000;fill-opacity:1;stroke:none;stroke-width:1.5;stroke-linecap:round;stroke-linejoin:round;stroke-dasharray:none;filter:url(#filter2)"
     id="path2"
     cx="13.493852"
     cy="22.228052"
     rx="9.9609156"
     ry="0.83416539"
     transform="matrix(0.462378,0,0,1,0.43406292,-0.39254841)"
     inkscape:label="shadow 1" /><path
     d="M 30.037,29.924 C 29.367,29.313 28.512,27.83 27.47,25.477 L 16.539,0.625 H 16.115 L 5.276,24.805 C 4.248,27.116 3.383,28.639 2.683,29.375 1.983,30.113 1.088,30.564 0,30.727 v 0.828 H 10.882433 V 30.727 C 9.3034327,30.608 7.8322081,30.43 7.4282081,30.192 c -0.687,-0.401 -0.545772,-1.026 -0.545772,-1.877 0,-0.641 0.209,-1.453 0.627,-2.438 l 1.273,-2.949 H 18.683 l 1.608,3.777 c 0.416,0.98 0.642,1.541 0.67,1.676 0.091,0.283 0.135,0.559 0.135,0.826 0,0.447 -0.163,0.791 -0.49,1.029 -0.479,0.328 -1.305,0.488 -2.48,0.488 h -0.604 v 0.828 h 14.659 v -0.828 c -0.92,-0.071 -1.636,-0.339 -2.144,-0.8 z M 9.5685692,21.274 14.21557,10.838 17.927,21.274 Z"
     id="path1"
     style="fill:#ffffff;fill-opacity:1;stroke:#ffffff;stroke-width:2.41357499;stroke-linejoin:miter;stroke-dasharray:none;stroke-opacity:1;paint-order:markers stroke fill;opacity:0.82456307"
     inkscape:label="highlight"
     sodipodi:nodetypes="cccccccccccscccccscsccccccccc"
     transform="matrix(0.62148473,0,0,0.62148473,2.2619558,2.0214412)" /><path
     d="M 30.037,29.924 C 29.367,29.313 28.512,27.83 27.47,25.477 L 16.539,0.625 H 16.115 L 5.276,24.805 C 4.248,27.116 3.383,28.639 2.683,29.375 1.983,30.113 1.088,30.564 0,30.727 v 0.828 H 10.882433 V 30.727 C 9.3034327,30.608 7.8322081,30.43 7.4282081,30.192 c -0.687,-0.401 -0.545772,-1.026 -0.545772,-1.877 0,-0.641 0.209,-1.453 0.627,-2.438 l 1.273,-2.949 H 18.683 l 1.608,3.777 c 0.416,0.98 0.642,1.541 0.67,1.676 0.091,0.283 0.135,0.559 0.135,0.826 0,0.447 -0.163,0.791 -0.49,1.029 -0.479,0.328 -1.305,0.488 -2.48,0.488 h -0.604 v 0.828 h 14.659 v -0.828 c -0.92,-0.071 -1.636,-0.339 -2.144,-0.8 z M 9.5685692,21.274 14.21557,10.838 17.927,21.274 Z"
     id="path3"
     style="fill:url(#radialGradient9);fill-opacity:1;stroke:none;stroke-width:1.60905;stroke-linejoin:miter;stroke-dasharray:none;stroke-opacity:1;paint-order:markers stroke fill"
     inkscape:label="letter"
     sodipodi:nodetypes="cccccccccccscccccscsccccccccc"
     transform="matrix(0.62148473,0,0,0.62148473,2.2619558,2.0214412)" /></svg>
