<?xml version="1.0" encoding="UTF-8" standalone="no"?>
<svg
   width="24"
   height="24"
   viewBox="0 0 24 24"
   fill="none"
   version="1.1"
   id="svg7"
   sodipodi:docname="gimp-tool-text-symbolic.svg"
   xml:space="preserve"
   inkscape:version="1.4.2 (ebf0e940d0, 2025-05-08)"
   xmlns:inkscape="http://www.inkscape.org/namespaces/inkscape"
   xmlns:sodipodi="http://sodipodi.sourceforge.net/DTD/sodipodi-0.dtd"
   xmlns="http://www.w3.org/2000/svg"
   xmlns:svg="http://www.w3.org/2000/svg"><sodipodi:namedview
     id="namedview7"
     pagecolor="#ffffff"
     bordercolor="#000000"
     borderopacity="0.25"
     inkscape:showpageshadow="2"
     inkscape:pageopacity="0.0"
     inkscape:pagecheckerboard="0"
     inkscape:deskcolor="#d1d1d1"
     inkscape:zoom="150.86945"
     inkscape:cx="8.7260873"
     inkscape:cy="16.696554"
     inkscape:window-width="1366"
     inkscape:window-height="768"
     inkscape:window-x="0"
     inkscape:window-y="0"
     inkscape:window-maximized="1"
     inkscape:current-layer="svg7"
     showgrid="true"><inkscape:grid
       id="grid1"
       units="px"
       originx="0"
       originy="0"
       spacingx="1"
       spacingy="1"
       empcolor="#0099e5"
       empopacity="0.30196078"
       color="#0099e5"
       opacity="0.14901961"
       empspacing="5"
       enabled="true"
       visible="true"
       dotted="true" /><inkscape:grid
       id="grid2"
       units="px"
       originx="0"
       originy="0"
       spacingx="0.66666"
       spacingy="0.66666"
       empcolor="#0099e5"
       empopacity="0.30196078"
       color="#0099e5"
       opacity="0.14901961"
       empspacing="5"
       enabled="true"
       visible="false" /></sodipodi:namedview><defs
     id="defs7"><filter
       id="filter0_f_86_239"
       x="4"
       y="18.75"
       width="16"
       height="5.5"
       filterUnits="userSpaceOnUse"
       color-interpolation-filters="sRGB"><feFlood
         flood-opacity="0"
         result="BackgroundImageFix"
         id="feFlood4" /><feBlend
         mode="normal"
         in="SourceGraphic"
         in2="BackgroundImageFix"
         result="shape"
         id="feBlend4" /><feGaussianBlur
         stdDeviation="1"
         result="effect1_foregroundBlur_86_239"
         id="feGaussianBlur4" /></filter><linearGradient
       id="paint0_linear_86_239"
       x1="11.7756"
       y1="12.77"
       x2="7.64316"
       y2="5.67184"
       gradientUnits="userSpaceOnUse"><stop
         stop-color="#1F1F1F"
         id="stop4" /><stop
         offset="1"
         stop-color="#5C5C5C"
         id="stop5" /></linearGradient><linearGradient
       id="paint1_linear_86_239"
       x1="10.2165"
       y1="8.97371"
       x2="12.0989"
       y2="10.4457"
       gradientUnits="userSpaceOnUse"><stop
         stop-color="white"
         id="stop6" /><stop
         offset="1"
         stop-color="#B3B3B3"
         stop-opacity="0"
         id="stop7" /></linearGradient><clipPath
       id="clip0_86_239"><rect
         width="22"
         height="22"
         fill="white"
         transform="translate(1 1)"
         id="rect7" /></clipPath></defs><path
     d="M 20.929493,20.302838 C 20.513098,19.923111 19.981728,19.001449 19.334141,17.539096 L 12.540692,2.093961 h -0.26351 L 5.5409092,17.121458 C 4.9020229,18.557709 4.3644386,19.504231 3.9293993,19.961643 3.49436,20.420299 2.9381312,20.700589 2.2619558,20.801891 v 0.514589 h 6.7632659 v -0.514589 c -0.9813245,-0.07396 -1.8956682,-0.184581 -2.146748,-0.332495 -0.42696,-0.249215 -0.339189,-0.637643 -0.339189,-1.166527 0,-0.398371 0.1298903,-0.903017 0.389671,-1.515179 l 0.79115,-1.832759 h 6.1530493 l 0.999347,2.347348 c 0.258538,0.609055 0.398994,0.957708 0.416395,1.041608 0.05655,0.175881 0.0839,0.34741 0.0839,0.513347 0,0.277804 -0.101302,0.491594 -0.304528,0.639508 -0.297691,0.203847 -0.811037,0.303284 -1.541282,0.303284 H 13.15161 v 0.51459 h 9.110345 v -0.51459 C 21.69019,20.755901 21.245207,20.589343 20.929493,20.302838 Z M 8.2086754,14.926995 11.096715,8.4411845 13.403313,14.926995 Z"
     id="path3"
     style="fill:#808080;fill-opacity:1;stroke:none;stroke-width:1;stroke-linejoin:miter;stroke-dasharray:none;stroke-opacity:1;paint-order:markers stroke fill"
     inkscape:label="letter"
     sodipodi:nodetypes="cccccccccccscccccscsccccccccc" /></svg>
