<?xml version="1.0" encoding="UTF-8" standalone="no"?>
<svg
   viewBox="0 0 15.999999 16"
   id="svg7384"
   height="16"
   width="16"
   version="1.1"
   inkscape:version="1.4.2 (ebf0e940d0, 2025-05-08)"
   sodipodi:docname="gimp-tool-ellipse-select-symbolic.svg"
   xmlns:inkscape="http://www.inkscape.org/namespaces/inkscape"
   xmlns:sodipodi="http://sodipodi.sourceforge.net/DTD/sodipodi-0.dtd"
   xmlns="http://www.w3.org/2000/svg"
   xmlns:svg="http://www.w3.org/2000/svg"
   xmlns:rdf="http://www.w3.org/1999/02/22-rdf-syntax-ns#"
   xmlns:cc="http://creativecommons.org/ns#"
   xmlns:dc="http://purl.org/dc/elements/1.1/">
  <sodipodi:namedview
     pagecolor="#ffffff"
     bordercolor="#666666"
     borderopacity="1"
     objecttolerance="10"
     gridtolerance="10"
     guidetolerance="10"
     inkscape:pageopacity="0"
     inkscape:pageshadow="2"
     inkscape:window-width="1366"
     inkscape:window-height="768"
     id="namedview1508"
     showgrid="false"
     inkscape:zoom="25.834102"
     inkscape:cx="8.1094361"
     inkscape:cy="8.5932927"
     inkscape:window-x="0"
     inkscape:window-y="0"
     inkscape:window-maximized="1"
     inkscape:current-layer="gimp-tool-ellipse-select"
     fit-margin-top="0"
     fit-margin-left="0"
     fit-margin-right="0"
     fit-margin-bottom="0"
     inkscape:showpageshadow="2"
     inkscape:pagecheckerboard="0"
     inkscape:deskcolor="#d1d1d1" />
  <metadata
     id="metadata90">
    <rdf:RDF>
      <cc:Work
         rdf:about="">
        <dc:format>image/svg+xml</dc:format>
        <dc:type
           rdf:resource="http://purl.org/dc/dcmitype/StillImage" />
        <dc:title />
        <dc:contributor>
          <cc:Agent>
            <dc:title>Barbara Muraus, Jakub Steiner, Klaus Staedtler</dc:title>
          </cc:Agent>
        </dc:contributor>
        <dc:description>Images originally created as the &quot;Art Libre&quot; icon set. Extended and adopted for GIMP</dc:description>
      </cc:Work>
    </rdf:RDF>
  </metadata>
  <defs
     id="defs7386">
    <!-- <linearGradient -->
    <!-- id="swatch5" -->
    <!-- inkscape:swatch="solid"> -->
    <!-- <stop -->
    <!-- style="stop-color:#000000;stop-opacity:1;" -->
    <!-- offset="0" -->
    <!-- id="stop5" /> -->
    <!-- </linearGradient> -->
    <!-- <linearGradient -->
    <!-- id="swatch4" -->
    <!-- inkscape:swatch="solid"> -->
    <!-- <stop -->
    <!-- style="stop-color:#000000;stop-opacity:1;" -->
    <!-- offset="0" -->
    <!-- id="stop4" /> -->
    <!-- </linearGradient> -->
    <!-- <linearGradient -->
    <!-- id="swatch3" -->
    <!-- inkscape:swatch="solid"> -->
    <!-- <stop -->
    <!-- style="stop-color:#000000;stop-opacity:1;" -->
    <!-- offset="0" -->
    <!-- id="stop3" /> -->
    <!-- </linearGradient> -->
    <!-- <linearGradient -->
    <!-- id="swatch2" -->
    <!-- inkscape:swatch="solid"> -->
    <!-- <stop -->
    <!-- style="stop-color:#000000;stop-opacity:1;" -->
    <!-- offset="0" -->
    <!-- id="stop2" /> -->
    <!-- </linearGradient> -->
    <!-- <linearGradient -->
    <!-- id="swatch1" -->
    <!-- inkscape:swatch="solid"> -->
    <!-- <stop -->
    <!-- style="stop-color:#000000;stop-opacity:1;" -->
    <!-- offset="0" -->
    <!-- id="stop1" /> -->
    <!-- </linearGradient> -->
    <!-- <linearGradient -->
    <!-- id="linearGradient8074" -->
    <!-- inkscape:swatch="solid"> -->
    <!-- <stop -->
    <!-- id="stop8072" -->
    <!-- offset="0" -->
    <!-- style="stop-color:#be00be;stop-opacity:1;" /> -->
    <!-- </linearGradient> -->
    <!-- <linearGradient -->
    <!-- id="linearGradient7561" -->
    <!-- inkscape:swatch="solid"> -->
    <!-- <stop -->
    <!-- id="stop7558" -->
    <!-- offset="0" -->
    <!-- style="stop-color:#a5a5a5;stop-opacity:1;" /> -->
    <!-- </linearGradient> -->
    <!-- <linearGradient -->
    <!-- id="linearGradient7548" -->
    <!-- inkscape:swatch="solid"> -->
    <!-- <stop -->
    <!-- id="stop7546" -->
    <!-- offset="0" -->
    <!-- style="stop-color:#ebebeb;stop-opacity:1;" /> -->
    <!-- </linearGradient> -->
    <!-- <linearGradient -->
    <!-- id="linearGradient7542" -->
    <!-- inkscape:swatch="solid"> -->
    <!-- <stop -->
    <!-- id="stop7538" -->
    <!-- offset="0" -->
    <!-- style="stop-color:#c9c9c9;stop-opacity:1;" /> -->
    <!-- </linearGradient> -->
    <!-- <linearGradient -->
    <!-- gradientTransform="matrix(0,-735328.32,170712.69,0,2464326300,577972450)" -->
    <!-- id="linearGradient19282" -->
    <!-- inkscape:swatch="solid"> -->
    <!-- <stop -->
    <!-- id="stop19284" -->
    <!-- offset="0" -->
    <!-- style="stop-color:#b4b4b4;stop-opacity:1;" /> -->
    <!-- </linearGradient> -->
    <!-- <linearGradient -->
    <!-- gradientTransform="matrix(0.34682586,0,0,0.30620888,-93.35187,504.03851)" -->
    <!-- id="linearGradient19282-4" -->
    <!-- inkscape:swatch="solid"> -->
    <!-- <stop -->
    <!-- id="stop19284-0" -->
    <!-- offset="0" -->
    <!-- style="stop-color:#bebebe;stop-opacity:1;" /> -->
    <!-- </linearGradient> -->
    <!-- <linearGradient -->
    <!-- inkscape:collect="always" -->
    <!-- xlink:href="#linearGradient19282-4" -->
    <!-- id="linearGradient4" -->
    <!-- x1="0.19129972" -->
    <!-- y1="8.0010881" -->
    <!-- x2="15.80877" -->
    <!-- y2="8.0010881" -->
    <!-- gradientUnits="userSpaceOnUse" /> -->
    <!-- <linearGradient -->
    <!-- inkscape:collect="always" -->
    <!-- xlink:href="#linearGradient19282-4" -->
    <!-- id="linearGradient5" -->
    <!-- x1="2.7662258" -->
    <!-- y1="8.0011768" -->
    <!-- x2="13.23378" -->
    <!-- y2="8.0011768" -->
    <!-- gradientUnits="userSpaceOnUse" /> -->
  </defs>
  <g
     style="display:inline"
     id="gimp-tool-ellipse-select"
     inkscape:label="gimp-tool-ellipse-select"
     transform="translate(-61.0002,-257)"
     inkscape:export-filename="/home/jehan/dev/src/gimp/icons/Symbolic/16/gimp-tool-ellipse-select.png"
     inkscape:export-xdpi="95.999985"
     inkscape:export-ydpi="95.999985">
    <path
       style="baseline-shift:baseline;display:none;overflow:visible;opacity:1;vector-effect:none;fill:#888888;fill-opacity:1;stroke-linejoin:round;stroke-dasharray:1.6;paint-order:markers stroke fill;enable-background:accumulate;stop-color:#000000;stop-opacity:1"
       d="M 7.9941406,2.328125 7.8222656,2.3300781 7.8339844,3.609375 8,3.6074219 l 0.1738281,0.00195 0.171875,0.00586 0.171875,0.00586 0.1699219,0.011719 0.1679688,0.013672 0.1679687,0.015625 0.1660156,0.019531 0.1484375,0.019531 L 9.5078125,2.4335938 9.3535156,2.4121094 A 0.64006399,0.64006399 0 0 0 9.34375,2.4101563 L 9.1660156,2.390625 A 0.64006399,0.64006399 0 0 0 9.1542966,2.388675 L 8.9746094,2.3710938 a 0.64006399,0.64006399 0 0 0 -0.00977,0 L 8.7832031,2.3554688 a 0.64006399,0.64006399 0 0 0 -0.00977,0 L 8.5917969,2.34375 a 0.64006399,0.64006399 0 0 0 -0.011719,0 L 8.3964842,2.33594 A 0.64006399,0.64006399 0 0 0 8.3867142,2.33399 L 8.2011673,2.33008 a 0.64006399,0.64006399 0 0 0 -0.00977,0 L 8.0058594,2.328125 a 0.64006399,0.64006399 0 0 0 -0.011719,0 z m -1.8652344,0.1621094 -0.029297,0.00586 a 0.64006399,0.64006399 0 0 0 -0.00977,0.00195 L 5.9179687,2.53125 A 0.64006399,0.64006399 0 0 0 5.9062497,2.5332 L 5.7382809,2.568356 a 0.64006399,0.64006399 0 0 0 -0.011719,0.00195 L 5.5585937,2.609375 a 0.64006399,0.64006399 0 0 0 -0.011719,0.00195 L 5.3808591,2.652341 a 0.64006399,0.64006399 0 0 0 -0.00977,0.00195 L 5.2070266,2.699213 a 0.64006399,0.64006399 0 0 0 -0.011719,0.00195 L 5.0331982,2.748038 a 0.64006399,0.64006399 0 0 0 -0.011719,0.00391 L 4.8613229,2.800776 a 0.64006399,0.64006399 0 0 0 -0.00977,0.00391 L 4.6933498,2.855467 a 0.64006399,0.64006399 0 0 0 -0.011719,0.00391 l -0.15625,0.054687 a 0.64006399,0.64006399 0 0 0 -0.011719,0.00391 l -0.042969,0.017578 0.4453125,1.1992187 0.037109,-0.013672 0.1445312,-0.050781 0.1464844,-0.046875 0.1484375,-0.046875 0.1503906,-0.042969 0.1523438,-0.041016 0.1542969,-0.037109 0.15625,-0.035156 0.15625,-0.033203 0.1601562,-0.03125 0.023437,-0.00391 z M 11.179688,2.8144531 10.78125,4.03125 l 0.121094,0.039063 0.144531,0.050781 0.142578,0.052734 0.138672,0.054687 0.136719,0.056641 0.136719,0.058594 0.132812,0.0625 0.128906,0.0625 0.128907,0.066406 0.125,0.066406 0.01563,0.00977 0.630859,-1.1132812 -0.02344,-0.013672 a 0.64006399,0.64006399 0 0 0 -0.01172,-0.00586 l -0.136719,-0.074219 a 0.64006399,0.64006399 0 0 0 -0.01172,-0.00586 l -0.138672,-0.072266 a 0.64006399,0.64006399 0 0 0 -0.01172,-0.00586 l -0.142579,-0.068359 a 0.64006399,0.64006399 0 0 0 -0.01172,-0.00586 l -0.142578,-0.066406 a 0.64006399,0.64006399 0 0 0 -0.01172,-0.00391 l -0.146485,-0.064453 a 0.64006399,0.64006399 0 0 0 -0.01172,-0.00586 l -0.150391,-0.0625 a 0.64006399,0.64006399 0 0 0 -0.0098,-0.00391 L 11.65035,2.9804618 a 0.64006399,0.64006399 0 0 0 -0.01172,-0.00586 l -0.152344,-0.056641 a 0.64006399,0.64006399 0 0 0 -0.01172,-0.00391 l -0.15625,-0.054687 a 0.64006399,0.64006399 0 0 0 -0.01172,-0.00391 z m -8.2636724,0.8710938 -0.074219,0.046875 a 0.64006399,0.64006399 0 0 0 -0.011719,0.00781 l -0.125,0.082031 a 0.64006399,0.64006399 0 0 0 -0.011719,0.00781 l -0.1230469,0.083984 a 0.64006399,0.64006399 0 0 0 -0.011719,0.00781 L 2.4375,4.0097656 a 0.64006399,0.64006399 0 0 0 -0.011719,0.00781 l -0.1171875,0.087891 a 0.64006399,0.64006399 0 0 0 -0.011719,0.00977 l -0.1132812,0.089844 a 0.64006399,0.64006399 0 0 0 -0.011719,0.00977 l -0.1113281,0.091797 a 0.64006399,0.64006399 0 0 0 -0.011719,0.00977 l -0.109375,0.095703 a 0.64006399,0.64006399 0 0 0 -0.011719,0.00977 L 1.8242187,4.5175781 A 0.64006399,0.64006399 0 0 0 1.8125,4.5292969 l -0.1015625,0.097656 a 0.64006399,0.64006399 0 0 0 -0.011719,0.011719 l -0.097656,0.099609 A 0.64006399,0.64006399 0 0 0 1.5898437,4.75 l -0.042969,0.044922 0.9335938,0.875 0.037109,-0.039063 0.085937,-0.087891 0.089844,-0.085937 0.09375,-0.085937 L 2.8828115,5.28711 2.9824205,5.205079 3.0859361,5.123048 3.1914049,5.044923 3.2988267,4.966798 3.4101549,4.890626 3.5253892,4.814454 3.5937482,4.771485 Z m 11.2597654,0.8320312 -0.865234,0.9433594 0.08594,0.082031 0.08594,0.087891 0.08398,0.089844 0.08008,0.089844 0.07617,0.091797 0.07422,0.091797 0.07031,0.09375 0.06641,0.09375 0.0625,0.095703 0.06055,0.095703 0.05664,0.095703 0.04297,0.082031 1.126953,-0.609375 -0.04883,-0.089844 a 0.64006399,0.64006399 0 0 0 -0.0098,-0.017578 L 15.15817,5.7207032 a 0.64006399,0.64006399 0 0 0 -0.0098,-0.017578 L 15.07806,5.5917971 a 0.64006399,0.64006399 0 0 0 -0.0098,-0.015625 L 14.99404,5.4648439 a 0.64006399,0.64006399 0 0 0 -0.0098,-0.015625 l -0.07813,-0.109375 a 0.64006399,0.64006399 0 0 0 -0.0098,-0.013672 L 14.81428,5.2167969 A 0.64006399,0.64006399 0 0 0 14.802734,5.203125 L 14.71875,5.0976562 A 0.64006399,0.64006399 0 0 0 14.70703,5.0839842 L 14.61914,4.9785154 a 0.64006399,0.64006399 0 0 0 -0.0098,-0.011719 L 14.51754,4.8632807 A 0.64006399,0.64006399 0 0 0 14.50582,4.8515617 L 14.410156,4.75 A 0.64006399,0.64006399 0 0 0 14.398436,4.738281 L 14.300776,4.638672 A 0.64006399,0.64006399 0 0 0 14.289056,4.626953 L 14.1875,4.5292969 A 0.64006399,0.64006399 0 0 0 14.17578,4.5175779 Z M 0.54296875,6.3066406 0.51367187,6.3730469 a 0.64006399,0.64006399 0 0 0 -0.007813,0.019531 l -0.0449214,0.121094 a 0.64006399,0.64006399 0 0 0 -0.007813,0.019531 L 0.4101558,6.6542967 a 0.64006399,0.64006399 0 0 0 -0.005859,0.021484 L 0.3671875,6.796875 A 0.64006399,0.64006399 0 0 0 0.3593745,6.818359 L 0.3261714,6.9414058 a 0.64006399,0.64006399 0 0 0 -0.005859,0.021484 l -0.0292969,0.125 a 0.64006399,0.64006399 0 0 0 -0.003906,0.021484 l -0.0253906,0.125 a 0.64006399,0.64006399 0 0 0 -0.003906,0.023437 l -0.0214844,0.125 A 0.64006399,0.64006399 0 0 0 0.234375,7.40625 L 0.21875,7.5332031 A 0.64006399,0.64006399 0 0 0 0.214844,7.5566401 L 0.203125,7.6855469 A 0.64006399,0.64006399 0 0 0 0.201172,7.7070309 L 0.195313,7.8359372 A 0.64006399,0.64006399 0 0 0 0.19336,7.8593742 L 0.191407,7.9902336 a 0.64006399,0.64006399 0 0 0 0,0.023437 L 0.19336,8.1269518 1.47461,8.1035148 1.47266,8.0019523 1.47461,7.8945304 1.48047,7.7890617 1.48828,7.6835929 1.501952,7.5781242 1.51953,7.4746086 1.539061,7.3710929 1.564452,7.2675773 1.591796,7.1660148 1.623046,7.0644523 1.658202,6.9628898 1.697265,6.8632808 1.720702,6.8066398 Z m 15.25585925,1.4296875 -1.277344,0.070312 0.0039,0.087891 0.002,0.095703 v 0.023437 l -0.002,0.09375 -0.0059,0.1074219 -0.0078,0.1054687 -0.01367,0.1035156 -0.01758,0.1035157 -0.01953,0.1035156 -0.02539,0.1035156 -0.02734,0.1015625 -0.03125,0.1015625 -0.03516,0.1015625 -0.03906,0.099609 -0.04297,0.099609 -0.01953,0.042969 1.16211,0.5371094 0.02539,-0.052734 a 0.64006399,0.64006399 0 0 0 0.0078,-0.017578 l 0.05078,-0.1191406 a 0.64006399,0.64006399 0 0 0 0.0078,-0.019531 l 0.04492,-0.1210937 a 0.64006399,0.64006399 0 0 0 0.0078,-0.019531 l 0.04297,-0.1210937 a 0.64006399,0.64006399 0 0 0 0.0059,-0.019531 l 0.03906,-0.1230469 a 0.64006399,0.64006399 0 0 0 0.0059,-0.021484 l 0.0332,-0.1230469 a 0.64006399,0.64006399 0 0 0 0.0059,-0.021484 l 0.0293,-0.125 a 0.64006399,0.64006399 0 0 0 0.0039,-0.021484 l 0.02539,-0.125 a 0.64006399,0.64006399 0 0 0 0.0039,-0.023437 l 0.02148,-0.125 a 0.64006399,0.64006399 0 0 0 0.002,-0.023437 L 15.78125,8.46875 a 0.64006399,0.64006399 0 0 0 0.0039,-0.023437 l 0.01172,-0.1269531 a 0.64006399,0.64006399 0 0 0 0.002,-0.023437 l 0.0059,-0.1289063 a 0.64006399,0.64006399 0 0 0 0.002,-0.023437 l 0.002,-0.1289062 -0.640625,-0.011719 0.640625,-0.011719 -0.002,-0.1308594 a 0.64006399,0.64006399 0 0 0 -0.002,-0.023437 z M 1.8007812,9.3671875 0.65625,9.9414063 0.6953125,10.019531 a 0.64006399,0.64006399 0 0 0 0.007813,0.01758 l 0.0625,0.115235 a 0.64006399,0.64006399 0 0 0 0.009766,0.01563 l 0.0664063,0.113281 a 0.64006399,0.64006399 0 0 0 0.009766,0.01758 l 0.0703125,0.111328 a 0.64006399,0.64006399 0 0 0 0.009766,0.01758 l 0.0742188,0.109375 a 0.64006399,0.64006399 0 0 0 0.00977,0.01563 l 0.078125,0.109375 a 0.64006399,0.64006399 0 0 0 0.00977,0.01563 l 0.082031,0.107422 a 0.64006399,0.64006399 0 0 0 0.011719,0.01367 l 0.083984,0.105469 a 0.64006399,0.64006399 0 0 0 0.011719,0.01367 l 0.087891,0.105469 a 0.64006399,0.64006399 0 0 0 0.00977,0.01367 l 0.091797,0.101563 a 0.64006399,0.64006399 0 0 0 0.011719,0.01367 l 0.095703,0.09961 a 0.64006399,0.64006399 0 0 0 0.011719,0.01367 l 0.097656,0.09961 a 0.64006399,0.64006399 0 0 0 0.011719,0.0098 l 0.019531,0.01953 L 2.619156,10.472703 2.603531,10.459033 2.517594,10.371143 2.43361,10.283253 2.353532,10.191453 2.27736,10.101613 2.203141,10.007863 2.132829,9.916066 2.066423,9.820363 2.003923,9.726613 1.943376,9.63091 1.886735,9.533254 1.834001,9.435598 Z m 11.6503908,1.0371095 -0.05469,0.05469 -0.08984,0.08789 -0.09375,0.08398 -0.0957,0.08399 -0.09961,0.08203 -0.103515,0.08203 -0.105469,0.08008 -0.107422,0.07813 -0.111328,0.07617 -0.115235,0.07422 -0.117187,0.07227 -0.03711,0.02344 0.654296,1.09961 0.04297,-0.02539 a 0.64006399,0.64006399 0 0 0 0.01172,-0.0078 l 0.128906,-0.08008 a 0.64006399,0.64006399 0 0 0 0.01172,-0.0078 l 0.125,-0.08203 a 0.64006399,0.64006399 0 0 0 0.01172,-0.0078 l 0.123047,-0.08398 a 0.64006399,0.64006399 0 0 0 0.01172,-0.0078 l 0.121094,-0.08594 a 0.64006399,0.64006399 0 0 0 0.01172,-0.0098 l 0.117187,-0.08789 a 0.64006399,0.64006399 0 0 0 0.01172,-0.0098 l 0.113281,-0.08984 a 0.64006399,0.64006399 0 0 0 0.01172,-0.0098 l 0.111328,-0.0918 a 0.64006399,0.64006399 0 0 0 0.01172,-0.0098 l 0.109375,-0.09375 a 0.64006399,0.64006399 0 0 0 0.01172,-0.01172 l 0.103515,-0.0957 a 0.64006399,0.64006399 0 0 0 0.01172,-0.01172 L 14.289063,11.375 a 0.64006399,0.64006399 0 0 0 0.01172,-0.0098 l 0.06055,-0.0625 z m -9.6835939,0.929687 -0.6308593,1.115235 0.1230468,0.06836 a 0.64006399,0.64006399 0 0 0 0.011719,0.0059 l 0.1367187,0.07422 a 0.64006399,0.64006399 0 0 0 0.011719,0.0059 l 0.1386719,0.07226 a 0.64006399,0.64006399 0 0 0 0.011719,0.0059 L 3.7128906,12.75 a 0.64006399,0.64006399 0 0 0 0.011719,0.0059 l 0.1425781,0.06641 a 0.64006399,0.64006399 0 0 0 0.011719,0.0059 l 0.1464843,0.06445 a 0.64006399,0.64006399 0 0 0 0.011719,0.0039 l 0.1503906,0.0625 a 0.64006399,0.64006399 0 0 0 0.00977,0.0039 l 0.1523438,0.06055 a 0.64006399,0.64006399 0 0 0 0.011719,0.0039 l 0.1523438,0.05664 a 0.64006399,0.64006399 0 0 0 0.011719,0.0039 l 0.15625,0.05469 a 0.64006399,0.64006399 0 0 0 0.011719,0.0039 l 0.017578,0.0059 0.3984375,-1.216797 -0.011719,-0.0039 -0.1445312,-0.05078 -0.1425781,-0.05273 -0.1386719,-0.05469 -0.1367188,-0.05664 -0.1367187,-0.05859 -0.1328125,-0.0625 -0.1289063,-0.0625 -0.1289062,-0.06641 -0.125,-0.06641 z m 7.2207029,0.56836 -0.08594,0.0293 -0.146485,0.04883 -0.148437,0.04492 -0.150391,0.04297 -0.152343,0.04102 -0.154297,0.03711 -0.1562504,0.03711 -0.15625,0.03125 -0.1601562,0.03125 -0.1347656,0.02344 0.2148437,1.261719 0.1425781,-0.02539 a 0.64006399,0.64006399 0 0 0 0.00977,-0.002 l 0.1718744,-0.03125 a 0.64006399,0.64006399 0 0 0 0.01172,-0.002 l 0.167969,-0.03711 a 0.64006399,0.64006399 0 0 0 0.01172,-0.002 l 0.167968,-0.03711 a 0.64006399,0.64006399 0 0 0 0.01172,-0.0039 l 0.166016,-0.04102 a 0.64006399,0.64006399 0 0 0 0.0098,-0.002 l 0.164063,-0.04492 a 0.64006399,0.64006399 0 0 0 0.01172,-0.002 l 0.162109,-0.04687 a 0.64006399,0.64006399 0 0 0 0.01172,-0.0039 l 0.160156,-0.04883 a 0.64006399,0.64006399 0 0 0 0.0098,-0.0039 l 0.158203,-0.05078 a 0.64006399,0.64006399 0 0 0 0.01172,-0.0039 l 0.0918,-0.03125 z m -4.4277341,0.382812 -0.1933594,1.265625 0.091797,0.01367 a 0.64006399,0.64006399 0 0 0 0.011719,0.002 l 0.1757813,0.02344 a 0.64006399,0.64006399 0 0 0 0.00977,0.002 l 0.1777344,0.01953 a 0.64006399,0.64006399 0 0 0 0.011719,0.002 l 0.1796875,0.01758 a 0.64006399,0.64006399 0 0 0 0.00977,0 l 0.1816407,0.01563 a 0.64006399,0.64006399 0 0 0 0.00977,0 l 0.1816406,0.01172 a 0.64006399,0.64006399 0 0 0 0.011719,0 l 0.1835937,0.0098 a 0.64006399,0.64006399 0 0 0 0.00977,0 l 0.1855469,0.0039 a 0.64006399,0.64006399 0 0 0 0.00977,0 l 0.1855469,0.002 a 0.64006399,0.64006399 0 0 0 0.011719,0 H 8.0625 l -0.011719,-1.27952 H 8 l -0.1738281,-0.002 -0.171875,-0.0039 -0.171875,-0.0078 L 7.3125,12.369141 7.1445312,12.355469 6.9765625,12.339844 6.8105469,12.320313 6.6464844,12.298828 Z"
       id="path2"
       transform="translate(61.000326,256.99989)"
       inkscape:label="dashes" />
    <path
       id="ellipse4"
       style="display:inline;opacity:0.33;fill:#808080;fill-opacity:1;stroke-width:0.960466"
       inkscape:label="center"
       d="m 74.234106,265.00107 a 5.233777,3.2250527 0 0 1 -5.233777,3.22505 5.233777,3.2250527 0 0 1 -5.233777,-3.22505 5.233777,3.2250527 0 0 1 5.233777,-3.22506 5.233777,3.2250527 0 0 1 5.233777,3.22506 z" />
    <path
       style="baseline-shift:baseline;display:inline;overflow:visible;vector-effect:none;fill:#808080;stroke-dasharray:1.56387;stroke-dashoffset:0.8124;enable-background:accumulate;stop-color:#000000;stop-opacity:1;opacity:1"
       d="m 69,259.5918 -0.193359,0.002 -0.19336,0.004 -0.191406,0.008 -0.191406,0.0117 -0.06836,0.006 0.101563,1.34961 0.05859,-0.004 0.167968,-0.01 0.167969,-0.008 0.171875,-0.004 0.169922,-0.002 0.171875,0.002 0.169922,0.004 0.169922,0.008 0.167968,0.01 0.04492,0.002 0.101563,-1.34961 -0.05469,-0.004 -0.191406,-0.0117 -0.191406,-0.008 -0.19336,-0.004 z m 2.476562,0.27734 -0.310546,1.31836 0.109375,0.0254 0.15039,0.0391 0.148438,0.0391 0.146484,0.043 0.144531,0.0449 0.142578,0.0469 0.138672,0.0508 0.138672,0.0508 0.134766,0.0527 0.126953,0.0527 0.519531,-1.25 -0.136719,-0.0566 -0.160156,-0.0625 -0.160156,-0.0605 -0.164063,-0.0586 -0.166015,-0.0547 -0.167969,-0.0508 -0.167969,-0.0508 -0.171875,-0.0469 -0.173828,-0.043 z m -4.96289,0.002 -0.109375,0.0274 -0.173828,0.043 -0.171875,0.0469 -0.169922,0.0508 -0.167969,0.0508 -0.164062,0.0547 -0.164063,0.0586 -0.162109,0.0605 -0.158203,0.0625 -0.150391,0.0625 0.521484,1.25 0.138672,-0.0586 0.134766,-0.0527 0.136719,-0.0508 0.140625,-0.0508 0.142578,-0.0469 0.144531,-0.0449 0.144531,-0.043 0.148438,-0.0391 0.15039,-0.0391 0.09961,-0.0234 z m 8.052734,1.34571 -0.789062,1.09961 0.06641,0.0488 0.101562,0.0742 0.0957,0.0781 0.0957,0.0781 0.08984,0.0781 0.08789,0.0801 0.08594,0.082 0.08008,0.084 0.07813,0.082 0.07617,0.0859 0.07031,0.084 0.06641,0.084 1.0625,-0.83789 -0.07813,-0.0996 -0.0957,-0.11524 -0.09961,-0.11132 -0.101563,-0.11133 -0.107422,-0.10742 -0.109375,-0.10547 -0.113281,-0.10352 -0.115234,-0.10156 -0.119141,-0.0977 -0.123047,-0.0976 -0.125,-0.0937 z m -11.142578,0.006 -0.06836,0.0508 -0.125,0.0937 -0.123047,0.0976 -0.119141,0.0977 -0.117187,0.10156 -0.111328,0.10352 -0.111329,0.10547 -0.105468,0.10742 -0.103516,0.11133 -0.09961,0.11132 -0.0957,0.11524 -0.0918,0.11523 -0.0059,0.01 1.085938,0.80664 -0.0039,0.008 0.06641,-0.0859 0.07227,-0.084 0.07422,-0.0859 0.07813,-0.082 0.08203,-0.084 0.08398,-0.082 0.08789,-0.0801 0.0918,-0.0781 0.09375,-0.0781 0.09766,-0.0781 0.09961,-0.0742 0.05859,-0.041 z m 13.224609,2.84375 -1.314453,0.32421 0.0098,0.041 0.01953,0.0937 0.01563,0.0937 0.01367,0.0937 0.0098,0.0957 0.0039,0.0957 0.002,0.084 v 0.0254 l -0.002,0.084 -0.0039,0.0957 -0.0098,0.0957 -0.01367,0.0937 -0.01563,0.0937 -0.01953,0.0937 -0.002,0.0117 1.314453,0.32617 0.0078,-0.0352 0.0293,-0.14258 0.02539,-0.14453 0.01953,-0.14453 0.01367,-0.14649 0.0078,-0.14648 0.0039,-0.13477 -0.677735,-0.0137 0.677735,-0.0117 -0.0039,-0.13476 -0.0078,-0.14649 -0.01367,-0.14648 -0.01953,-0.14453 -0.02539,-0.14454 -0.0293,-0.14257 z m -15.298828,0.0117 -0.01367,0.0508 -0.0293,0.14257 -0.02344,0.14454 -0.01953,0.14453 -0.01367,0.14648 -0.0098,0.14649 -0.002,0.14843 0.002,0.14649 0.0098,0.14648 0.01367,0.14649 0.01953,0.14453 0.02344,0.14453 0.0293,0.14258 0.02148,0.0801 1.3125,-0.32617 -0.01367,-0.0566 -0.01953,-0.0937 -0.01563,-0.0937 -0.01172,-0.0937 -0.0098,-0.0957 -0.0059,-0.0957 -0.002,-0.0957 0.002,-0.0977 0.0059,-0.0957 0.0098,-0.0957 0.01172,-0.0937 0.01563,-0.0937 0.01953,-0.0937 0.0078,-0.0273 z m 13.427735,2.66016 -0.0039,0.006 -0.06836,0.0859 -0.07031,0.0859 -0.07617,0.084 -0.07813,0.084 -0.08008,0.082 -0.08594,0.082 -0.08789,0.0801 -0.08984,0.0781 -0.0957,0.0781 -0.0957,0.0781 -0.101562,0.0762 -0.04297,0.0312 0.789063,1.09961 0.05664,-0.041 0.125,-0.0937 0.123047,-0.0977 0.119141,-0.0977 0.115234,-0.10156 0.113281,-0.10352 0.109375,-0.10546 0.107422,-0.10743 0.101563,-0.11132 0.09961,-0.11133 0.0957,-0.11524 0.0918,-0.11523 0.01563,-0.0215 z m -11.539063,0.0195 -1.0625,0.83985 0.06836,0.0859 0.0957,0.11524 0.09961,0.11133 0.103516,0.11132 0.105468,0.10743 0.111329,0.10546 0.111328,0.10352 0.117187,0.10156 0.119141,0.0977 0.123047,0.0977 0.125,0.0937 0.0918,0.0664 0.791015,-1.09961 -0.08203,-0.0566 -0.09961,-0.0762 -0.09766,-0.0781 -0.09375,-0.0781 -0.0918,-0.0781 -0.08789,-0.0801 -0.08398,-0.082 -0.08203,-0.082 -0.07813,-0.084 -0.07422,-0.084 -0.07227,-0.0859 z m 9.322266,1.60547 -0.0078,0.002 -0.132812,0.0566 -0.134766,0.0527 -0.138672,0.0508 -0.138672,0.0508 -0.142578,0.0469 -0.144531,0.0449 -0.146484,0.043 -0.148438,0.0391 -0.15039,0.0391 -0.08203,0.0195 0.310547,1.31836 0.09375,-0.0234 0.173828,-0.043 0.171875,-0.0469 0.167969,-0.0508 0.167969,-0.0508 0.166015,-0.0547 0.164063,-0.0586 0.160156,-0.0606 0.160156,-0.0625 0.15625,-0.0644 0.01953,-0.01 z m -7.089844,0.0117 -0.521484,1.25 0.123047,0.0508 0.158203,0.0625 0.162109,0.0606 0.164063,0.0586 0.164062,0.0547 0.167969,0.0508 0.169922,0.0508 0.171875,0.0469 0.173828,0.043 0.136719,0.0332 0.310546,-1.31836 -0.126953,-0.0293 -0.15039,-0.0391 -0.148438,-0.0391 -0.144531,-0.043 -0.144531,-0.0449 -0.142578,-0.0469 -0.140625,-0.0508 -0.136719,-0.0508 -0.134766,-0.0527 z m 4.28125,0.65234 -0.07227,0.006 -0.167968,0.01 -0.169922,0.008 -0.169922,0.004 -0.171875,0.002 -0.169922,-0.002 -0.171875,-0.004 -0.167969,-0.008 -0.167968,-0.01 -0.0293,-0.002 -0.103516,1.34961 0.04102,0.004 0.191406,0.0117 0.191406,0.008 0.19336,0.006 H 69 69.195312 l 0.19336,-0.006 0.191406,-0.008 0.191406,-0.0117 0.08398,-0.006 z"
       id="path1" />
    <rect
       style="display:none;opacity:0.164405;fill:#000000;stroke:#ffffff;stroke-width:1.354;stroke-miterlimit:8.6;stroke-dasharray:1.71281;stroke-dashoffset:0;stroke-opacity:0.7973;paint-order:stroke fill markers"
       id="rect3"
       width="18.967178"
       height="7.0062432"
       x="59.95507"
       y="258.04514" />
  </g>
</svg>
