<?xml version="1.0" encoding="UTF-8" standalone="no"?>
<svg
   width="24"
   height="24"
   viewBox="0 0 24 24"
   fill="none"
   version="1.1"
   id="svg14"
   sodipodi:docname="gimp-tool-shear.svg"
   inkscape:version="1.4.2 (ebf0e940d0, 2025-05-08)"
   xmlns:inkscape="http://www.inkscape.org/namespaces/inkscape"
   xmlns:sodipodi="http://sodipodi.sourceforge.net/DTD/sodipodi-0.dtd"
   xmlns="http://www.w3.org/2000/svg"
   xmlns:svg="http://www.w3.org/2000/svg">
  <sodipodi:namedview
     id="namedview14"
     pagecolor="#ffffff"
     bordercolor="#000000"
     borderopacity="0.25"
     inkscape:showpageshadow="2"
     inkscape:pageopacity="0.0"
     inkscape:pagecheckerboard="0"
     inkscape:deskcolor="#d1d1d1"
     showgrid="true"
     inkscape:zoom="25.596581"
     inkscape:cx="12.091458"
     inkscape:cy="14.455055"
     inkscape:window-width="1366"
     inkscape:window-height="768"
     inkscape:window-x="0"
     inkscape:window-y="0"
     inkscape:window-maximized="1"
     inkscape:current-layer="layer3">
    <inkscape:grid
       id="grid14"
       units="px"
       originx="0"
       originy="0"
       spacingx="1"
       spacingy="1"
       empcolor="#0099e5"
       empopacity="0.30196078"
       color="#0099e5"
       opacity="0.14901961"
       empspacing="5"
       enabled="true"
       visible="true" />
  </sodipodi:namedview>
  <g
     clip-path="url(#clip0_254_59)"
     id="g11"
     style="display:none">
    <g
       filter="url(#filter0_f_254_59)"
       id="g1">
      <ellipse
         cx="11.5"
         cy="16.5"
         rx="8.5"
         ry="1.5"
         fill="#000000"
         fill-opacity="0.35"
         id="ellipse1" />
    </g>
    <path
       d="M 5,16 V 4 h 12 v 12 z"
       fill="#204a87"
       id="path1" />
    <mask
       id="path-3-inside-1_254_59"
       fill="#ffffff">
      <path
         fill-rule="evenodd"
         clip-rule="evenodd"
         d="M 6,15 V 5 h 10 v 10 z"
         id="path2" />
    </mask>
    <path
       fill-rule="evenodd"
       clip-rule="evenodd"
       d="M 6,15 V 5 h 10 v 10 z"
       fill="url(#paint0_linear_254_59)"
       stroke="#5d8bbf"
       stroke-width="2"
       stroke-linecap="square"
       stroke-linejoin="round"
       mask="url(#path-3-inside-1_254_59)"
       id="path3" />
    <path
       fill-rule="evenodd"
       clip-rule="evenodd"
       d="M 9.50391,17 6.29688,6 H 16.5312 l 3.1485,11 z"
       fill="url(#paint1_linear_254_59)"
       fill-opacity="0.65"
       id="path4" />
    <mask
       id="path-5-inside-2_254_59"
       fill="#ffffff">
      <path
         fill-rule="evenodd"
         clip-rule="evenodd"
         d="m 9.50366,17 -3.5,-12 H 16.262 l 3.4177,12 z"
         id="path5" />
    </mask>
    <path
       fill-rule="evenodd"
       clip-rule="evenodd"
       d="m 9.50366,17 -3.5,-12 H 16.262 l 3.4177,12 z"
       stroke="#ffffff"
       stroke-opacity="0.3"
       stroke-width="2"
       stroke-linecap="square"
       stroke-linejoin="round"
       mask="url(#path-5-inside-2_254_59)"
       id="path6" />
    <mask
       id="path-6-outside-3_254_59"
       maskUnits="userSpaceOnUse"
       x="5.00391"
       y="3.99976"
       width="17"
       height="15"
       fill="#000000">
      <rect
         fill="#ffffff"
         x="5.0039101"
         y="3.9997599"
         width="17"
         height="15"
         id="rect6" />
      <path
         fill-rule="evenodd"
         clip-rule="evenodd"
         d="M 9.50391,16.9999 6.00391,4.99976 16.26,5 19.6797,17 Z"
         id="path7" />
    </mask>
    <path
       d="m 9.50391,16.9999 -0.96,0.28 0.20999,0.72 h 0.75 z m -3.5,-12.00014 2e-5,-1 -0.96002,1.27999 z M 16.26,5 17.2217,4.72594 17.0149,4.00002 16.26,4 Z m 3.4197,12 v 1 h 1.3248 L 20.6414,16.7259 Z M 10.4639,16.72 6.96391,4.71976 l -1.92,0.55999 3.5,12.00015 z M 6.00388,5.99976 16.26,6 V 4 L 6.00393,3.99976 Z M 15.2983,5.27406 18.718,17.2741 20.6414,16.7259 17.2217,4.72594 Z M 19.6797,16 9.50391,15.9999 l -10e-6,2 L 19.6797,18 Z"
       fill="#204a87"
       fill-opacity="0.65"
       mask="url(#path-6-outside-3_254_59)"
       id="path8" />
    <mask
       id="path-8-outside-4_254_59"
       maskUnits="userSpaceOnUse"
       x="3"
       y="15"
       width="8"
       height="7"
       fill="#000000">
      <rect
         fill="#ffffff"
         x="3"
         y="15"
         width="8"
         height="7"
         id="rect8" />
      <path
         d="M 4,19 V 18 H 5 7 V 16 H 7.5 L 10,18.5 7.5,21 H 7 V 19 H 5 Z"
         id="path9" />
    </mask>
    <path
       d="M 4,19 V 18 H 5 7 V 16 H 7.5 L 10,18.5 7.5,21 H 7 V 19 H 5 Z"
       fill="#ffffff"
       id="path10" />
    <path
       d="M 4,18 V 17 H 3 v 1 z m 0,1 H 3 v 1 h 1 z m 3,0 H 8 C 8,18.4477 7.55228,18 7,18 Z m 0,2 H 6 v 1 H 7 Z M 7,16 V 15 H 6 v 1 z m 0,2 v 1 c 0.55228,0 1,-0.4477 1,-1 z m 3,0.5 0.7071,0.7071 c 0.3905,-0.3905 0.3905,-1.0237 0,-1.4142 z M 7.5,16 8.20711,15.2929 C 8.01957,15.1054 7.76522,15 7.5,15 Z m 0,5 v 1 c 0.26522,0 0.51957,-0.1054 0.70711,-0.2929 z M 3,18 v 1 h 2 v -1 z m 1,2 H 5 V 18 H 4 Z m 1,0 H 7 V 18 H 5 Z m 1,-1 v 2 h 2 v -2 z m 0,-3 v 2 h 2 v -2 z m 1,1 H 5 v 2 H 7 Z M 5,17 H 4 v 2 h 1 z m 5.7071,0.7929 -2.49999,-2.5 -1.41422,1.4142 2.5,2.5 z M 7.5,15 H 7 v 2 H 7.5 Z M 7,22 H 7.5 V 20 H 7 Z m 1.20711,-0.2929 2.49999,-2.5 -1.41421,-1.4142 -2.5,2.5 z"
       fill="#3465a4"
       mask="url(#path-8-outside-4_254_59)"
       id="path11" />
  </g>
  <defs
     id="defs14">
    <filter
       id="filter0_f_254_59"
       x="-1"
       y="11"
       width="25"
       height="11"
       filterUnits="userSpaceOnUse"
       color-interpolation-filters="sRGB">
      <feFlood
         flood-opacity="0"
         result="BackgroundImageFix"
         id="feFlood11" />
      <feBlend
         mode="normal"
         in="SourceGraphic"
         in2="BackgroundImageFix"
         result="shape"
         id="feBlend11" />
      <feGaussianBlur
         stdDeviation="2"
         result="effect1_foregroundBlur_254_59"
         id="feGaussianBlur11" />
    </filter>
    <linearGradient
       id="paint0_linear_254_59"
       x1="10.1667"
       y1="6"
       x2="10.1667"
       y2="14"
       gradientUnits="userSpaceOnUse">
      <stop
         stop-color="#39567F"
         id="stop11" />
      <stop
         offset="1"
         stop-color="#537FB6"
         id="stop12" />
    </linearGradient>
    <linearGradient
       id="paint1_linear_254_59"
       x1="12.9883"
       y1="6"
       x2="12.9883"
       y2="17"
       gradientUnits="userSpaceOnUse">
      <stop
         stop-color="#5D8BBF"
         id="stop13" />
      <stop
         offset="1"
         stop-color="#7FA3CC"
         id="stop14" />
    </linearGradient>
    <clipPath
       id="clip0_254_59">
      <rect
         width="24"
         height="24"
         fill="white"
         id="rect14" />
    </clipPath>
    <mask
       id="path-8-outside-4_254_59-0"
       maskUnits="userSpaceOnUse"
       x="3"
       y="15"
       width="8"
       height="7"
       fill="#000000">
      <rect
         fill="#ffffff"
         x="3"
         y="15"
         width="8"
         height="7"
         id="rect8-5" />
      <path
         d="M 4,19 V 18 H 5 7 V 16 H 7.5 L 10,18.5 7.5,21 H 7 V 19 H 5 Z"
         id="path9-3" />
    </mask>
  </defs>
  <g
     inkscape:groupmode="layer"
     id="layer3"
     inkscape:label="Layer 1"
     style="display:inline">
    <g
       id="g56"
       inkscape:label="pallete"
       transform="translate(0,-1)"
       style="display:none">
      <path
         style="fill:#153c15;stroke-width:0.5;stroke-linecap:square;paint-order:stroke fill markers"
         d="m 0,25 v 1 h 1 v -1 z"
         id="path51" />
      <path
         style="fill:#1ca011;fill-opacity:1;stroke-width:0.5;stroke-linecap:square;paint-order:stroke fill markers"
         d="m 1,25 h 1 v 1 H 1 Z"
         id="path52" />
      <path
         style="fill:#4b3600;fill-opacity:1;stroke-width:0.5;stroke-linecap:square;paint-order:stroke fill markers"
         d="m 2,25 v 1 h 1 v -1 z"
         id="path53" />
      <path
         style="fill:#d19e05;fill-opacity:1;stroke-width:0.5;stroke-linecap:square;paint-order:stroke fill markers"
         d="m 3,25 h 1 v 1 H 3 Z"
         id="path54" />
    </g>
    <g
       id="g15"
       inkscape:label="frame 1"
       style="display:inline">
      <path
         style="fill:#4b3600;fill-opacity:1;stroke:none;stroke-width:0.5;stroke-linecap:square;paint-order:stroke fill markers"
         d="M 5,4 V 16 H 17 V 4 H 5"
         id="path14"
         inkscape:label="outline" />
      <path
         style="fill:#d19e05;fill-opacity:1;stroke:none;stroke-width:0.5;stroke-linecap:square;paint-order:stroke fill markers"
         d="M 6,5 V 15 H 16 V 5 Z"
         id="path15"
         inkscape:label="inner" />
    </g>
    <g
       id="g19"
       inkscape:label="frame 2"
       transform="matrix(1,0,0.33333333,1.1664502,-1.3333333,-0.66580087)">
      <path
         style="fill:#4b3600;fill-opacity:1;stroke:none;stroke-width:0.5;stroke-linecap:square;paint-order:stroke fill markers"
         d="M 5,4 V 16 H 17 V 4 H 5"
         id="path18"
         inkscape:label="outline" />
      <path
         style="fill:#ebc040;fill-opacity:1;stroke:none;stroke-width:0.5;stroke-linecap:square;paint-order:stroke fill markers"
         d="M 6,5 V 15 H 16 V 5 Z"
         id="path19"
         inkscape:label="inner" />
    </g>
    <path
       d="M 4,18 V 17 H 3 v 1 z m 0,1 H 3 v 1 h 1 z m 3,0 H 8 C 8,18.4477 7.55228,18 7,18 Z m 0,2 H 6 v 1 H 7 Z M 7,16 V 15 H 6 v 1 z m 0,2 v 1 c 0.55228,0 1,-0.4477 1,-1 z m 3,0.5 0.7071,0.7071 c 0.3905,-0.3905 0.3905,-1.0237 0,-1.4142 z M 7.5,16 8.20711,15.2929 C 8.01957,15.1054 7.76522,15 7.5,15 Z m 0,5 v 1 c 0.26522,0 0.51957,-0.1054 0.70711,-0.2929 z M 3,18 v 1 h 2 v -1 z m 1,2 H 5 V 18 H 4 Z m 1,0 H 7 V 18 H 5 Z m 1,-1 v 2 h 2 v -2 z m 0,-3 v 2 h 2 v -2 z m 1,1 H 5 v 2 H 7 Z M 5,17 H 4 v 2 h 1 z m 5.7071,0.7929 -2.49999,-2.5 -1.41422,1.4142 2.5,2.5 z M 7.5,15 H 7 v 2 H 7.5 Z M 7,22 H 7.5 V 20 H 7 Z m 1.20711,-0.2929 2.49999,-2.5 -1.41421,-1.4142 -2.5,2.5 z"
       fill="#3465a4"
       mask="url(#path-8-outside-4_254_59-0)"
       id="path11-6"
       style="display:inline;fill:#153c15;fill-opacity:1" />
  </g>
</svg>
