<?xml version="1.0" encoding="UTF-8" standalone="no"?>
<svg
   viewBox="0 0 15.999999 16"
   id="svg7384"
   height="16"
   width="16"
   version="1.1"
   inkscape:version="1.4.2 (ebf0e940d0, 2025-05-08)"
   sodipodi:docname="gimp-tool-free-select-symbolic.svg"
   xmlns:inkscape="http://www.inkscape.org/namespaces/inkscape"
   xmlns:sodipodi="http://sodipodi.sourceforge.net/DTD/sodipodi-0.dtd"
   xmlns:xlink="http://www.w3.org/1999/xlink"
   xmlns="http://www.w3.org/2000/svg"
   xmlns:svg="http://www.w3.org/2000/svg"
   xmlns:rdf="http://www.w3.org/1999/02/22-rdf-syntax-ns#"
   xmlns:cc="http://creativecommons.org/ns#"
   xmlns:dc="http://purl.org/dc/elements/1.1/">
  <sodipodi:namedview
     pagecolor="#ffffff"
     bordercolor="#666666"
     borderopacity="1"
     objecttolerance="10"
     gridtolerance="10"
     guidetolerance="10"
     inkscape:pageopacity="0"
     inkscape:pageshadow="2"
     inkscape:window-width="1334"
     inkscape:window-height="736"
     id="namedview1509"
     showgrid="false"
     inkscape:zoom="29.615234"
     inkscape:cx="6.3649674"
     inkscape:cy="8.8467981"
     inkscape:window-x="0"
     inkscape:window-y="0"
     inkscape:window-maximized="0"
     inkscape:current-layer="svg7384"
     inkscape:showpageshadow="2"
     inkscape:pagecheckerboard="0"
     inkscape:deskcolor="#d1d1d1" />
  <metadata
     id="metadata90">
    <rdf:RDF>
      <cc:Work
         rdf:about="">
        <dc:format>image/svg+xml</dc:format>
        <dc:type
           rdf:resource="http://purl.org/dc/dcmitype/StillImage" />
        <dc:title />
        <dc:contributor>
          <cc:Agent>
            <dc:title>Barbara Muraus, Jakub Steiner, Klaus Staedtler</dc:title>
          </cc:Agent>
        </dc:contributor>
        <dc:description>Images originally created as the &quot;Art Libre&quot; icon set. Extended and adopted for GIMP</dc:description>
      </cc:Work>
    </rdf:RDF>
  </metadata>
  <defs
     id="defs7386">
    <linearGradient
       id="linearGradient8074"
       inkscape:swatch="solid">
      <stop
         id="stop8072"
         offset="0"
         style="stop-color:#be00be;stop-opacity:1;" />
    </linearGradient>
    <linearGradient
       id="linearGradient7561"
       inkscape:swatch="solid">
      <stop
         id="stop7558"
         offset="0"
         style="stop-color:#a5a5a5;stop-opacity:1;" />
    </linearGradient>
    <linearGradient
       id="linearGradient7548"
       inkscape:swatch="solid">
      <stop
         id="stop7546"
         offset="0"
         style="stop-color:#ebebeb;stop-opacity:1;" />
    </linearGradient>
    <linearGradient
       id="linearGradient7542"
       inkscape:swatch="solid">
      <stop
         id="stop7538"
         offset="0"
         style="stop-color:#c9c9c9;stop-opacity:1;" />
    </linearGradient>
    <linearGradient
       gradientTransform="matrix(0,-735328.32,170712.69,0,2464326300,577972450)"
       id="linearGradient19282"
       inkscape:swatch="solid">
      <stop
         id="stop19284"
         offset="0"
         style="stop-color:#b4b4b4;stop-opacity:1;" />
    </linearGradient>
    <linearGradient
       gradientTransform="matrix(0.34682586,0,0,0.30620888,-113.35187,504.03851)"
       id="linearGradient19282-4"
       inkscape:swatch="solid">
      <stop
         id="stop19284-0"
         offset="0"
         style="stop-color:#bebebe;stop-opacity:1;" />
    </linearGradient>
    <linearGradient
       gradientTransform="translate(224.80773,121.90178)"
       gradientUnits="userSpaceOnUse"
       y2="45.466358"
       x2="-184.58543"
       y1="45.466358"
       x1="-199.50839"
       id="linearGradient10710"
       xlink:href="#linearGradient19282-4" />
    <linearGradient
       gradientTransform="translate(224.80773,121.90178)"
       gradientUnits="userSpaceOnUse"
       y2="270"
       x2="48.652409"
       y1="270"
       x1="45.000198"
       id="linearGradient10716"
       xlink:href="#linearGradient19282-4" />
    <linearGradient
       gradientTransform="translate(224.80773,121.90178)"
       gradientUnits="userSpaceOnUse"
       y2="266"
       x2="47.000198"
       y1="266"
       x1="43.000198"
       id="linearGradient10722"
       xlink:href="#linearGradient19282-4" />
    <linearGradient
       id="linearGradient3"
       inkscape:swatch="gradient">
      <stop
         style="stop-color:#9a823e;stop-opacity:0.8134042;"
         offset="0"
         id="stop3" />
      <stop
         style="stop-color:#8d784e;stop-opacity:1;"
         offset="1"
         id="stop4" />
    </linearGradient>
  </defs>
  <g
     transform="translate(65.82595,-186.42526)"
     style="display:none"
     id="tools">
    <g
       transform="translate(-106.82615,-70.57474)"
       id="gimp-tool-free-select"
       style="display:inline">
      <path
         style="fill:url(#linearGradient10710);fill-opacity:1;stroke:none"
         d="m -190.875,40.5 c -0.49024,-0.004 -1.0163,0.02963 -1.53125,0.09375 -4.11962,0.5134 -7.28695,3.11335 -7.09375,5.8125 0.1932,2.69915 3.66163,4.45088 7.78125,3.9375 4.11962,-0.5134 7.3182,-3.11334 7.125,-5.8125 -0.16905,-2.36175 -2.84959,-3.99913 -6.28125,-4.03125 z m -0.1875,1.5 c 1.37941,0.0113 2.59622,0.31205 3.5,0.8125 0.90379,0.50045 1.49455,1.20061 1.5625,2.03125 0.15532,1.89861 -2.40686,3.73262 -5.71875,4.09375 -3.31189,0.36113 -6.12593,-0.88264 -6.28125,-2.78125 -0.15532,-1.89861 2.40686,-3.73262 5.71875,-4.09375 0.41399,-0.0451 0.82463,-0.0657 1.21875,-0.0625 z"
         transform="translate(241.0002,217)"
         id="path4672"
         inkscape:connector-curvature="0" />
      <path
         style="fill:url(#linearGradient10722);fill-opacity:1;stroke:none"
         d="m 45.0002,264 c -1.10457,0 -2,0.89543 -2,2 0,1.10457 0.89543,2 2,2 1.10457,0 2,-0.89543 2,-2 0,-1.10457 -0.89543,-2 -2,-2 z m 0,1 c 0.55228,0 1,0.44772 1,1 0,0.55228 -0.44772,1 -1,1 -0.55228,0 -1,-0.44772 -1,-1 0,-0.55228 0.44772,-1 1,-1 z"
         id="path4660"
         inkscape:connector-curvature="0" />
      <path
         style="fill:url(#linearGradient10716);fill-opacity:1;stroke:none"
         d="m 45.0002,267 c 0,0 4.40625,3 0,6 h 2.03125 c 3.65625,-2.54511 -0.01563,-6 -0.01563,-6 z"
         id="path4664"
         inkscape:connector-curvature="0" />
    </g>
  </g>
  <path
     style="baseline-shift:baseline;display:inline;overflow:visible;vector-effect:none;stroke-linecap:round;stroke-linejoin:round;paint-order:stroke fill markers;enable-background:accumulate;stop-color:#000000;stop-opacity:1;opacity:1"
     d="M 7.9980469,0.7265625 C 6.4749727,0.73453074 4.7235349,1.2461996 3.2910156,2.1113281 1.8584963,2.9764566 0.67189796,4.2604444 0.7265625,5.8730469 0.77410525,7.2755591 1.3195832,8.2391018 1.8691406,8.8125 1.9769589,8.9249956 1.9872343,8.8822765 2.09375,8.96875 c 0.019566,0.109582 -0.030747,0.2533526 0.00391,0.3496094 0.089052,0.247363 0.2226205,0.477941 0.3925781,0.6972656 0.3399151,0.438649 0.8217655,0.884748 1.53125,0.896484 0.1406044,0.0023 0.1991429,-0.109348 0.3300781,-0.123046 0.028051,0.02054 0.054076,0.03768 0.082031,0.05859 0.6427254,0.480873 1.1998978,1.032799 1.3398438,1.716797 C 6.0594983,13.962601 5.1777344,14.8125 5.1777344,14.8125 a 0.64999998,0.64999998 0 0 0 -0.00391,0.919922 0.64999998,0.64999998 0 0 0 0.9199219,0.002 c 0,0 1.3706268,-1.391063 0.953125,-3.431641 C 6.8542047,11.361041 6.2621056,10.73369 5.6660156,10.222656 5.7531884,10.094683 5.7248819,9.9648797 5.7675781,9.8320313 6.780934,10.077483 7.9831073,10.248884 9.6386719,10.023438 10.753323,9.87165 12.076477,9.3537816 13.158203,8.4921875 14.239929,7.6305934 15.096271,6.3450939 14.929688,4.7929687 14.734338,2.9728223 13.403777,1.8774656 11.994141,1.34375 10.584504,0.81003444 9.0370237,0.72112692 7.9980469,0.7265625 Z m 0.00781,1.3007813 c 0.9488046,-0.00496 2.3765206,0.097479 3.5273436,0.5332031 1.150823,0.4357237 1.965908,1.0889506 2.103516,2.3710937 0.10904,1.0159705 -0.422743,1.8545013 -1.28711,2.5429688 C 11.485243,8.1630768 10.304446,8.6197763 9.4628906,8.734375 7.7383083,8.96922 6.6130883,8.7510092 5.6894531,8.4746094 5.5611394,8.2745394 5.5042791,8.0051569 5.328125,7.9003906 5.0042506,7.7077689 4.6468885,7.6196328 4.2792969,7.609375 4.0702033,7.6035402 3.8612245,7.7308751 3.6484375,7.7988281 3.5795526,7.7792648 3.5097827,7.734957 3.4375,7.7207031 3.2340091,7.6805755 2.9754467,7.6936491 2.7265625,7.7910156 2.3945525,7.4104244 2.0597032,6.8423007 2.0253906,5.8300781 1.9940101,4.9043522 2.747718,3.9584777 3.9628906,3.2246094 5.1780633,2.4907411 6.782722,2.0337428 8.0058594,2.0273438 Z"
     id="path2" />
</svg>
