<?xml version="1.0" encoding="UTF-8" standalone="no"?>
<svg
   width="24"
   height="24"
   viewBox="0 0 24 24"
   fill="none"
   version="1.1"
   id="svg15"
   sodipodi:docname="gimp-tool-handle-transform.svg"
   inkscape:version="1.4.2 (ebf0e940d0, 2025-05-08)"
   xmlns:inkscape="http://www.inkscape.org/namespaces/inkscape"
   xmlns:sodipodi="http://sodipodi.sourceforge.net/DTD/sodipodi-0.dtd"
   xmlns="http://www.w3.org/2000/svg"
   xmlns:svg="http://www.w3.org/2000/svg">
  <sodipodi:namedview
     id="namedview15"
     pagecolor="#ffffff"
     bordercolor="#000000"
     borderopacity="0.25"
     inkscape:showpageshadow="2"
     inkscape:pageopacity="0.0"
     inkscape:pagecheckerboard="0"
     inkscape:deskcolor="#d1d1d1"
     showgrid="true"
     inkscape:zoom="23.416667"
     inkscape:cx="5.1886121"
     inkscape:cy="13.964413"
     inkscape:window-width="1366"
     inkscape:window-height="768"
     inkscape:window-x="0"
     inkscape:window-y="0"
     inkscape:window-maximized="1"
     inkscape:current-layer="layer5">
    <inkscape:grid
       id="grid15"
       units="px"
       originx="0"
       originy="0"
       spacingx="1"
       spacingy="1"
       empcolor="#0099e5"
       empopacity="0.30196078"
       color="#0099e5"
       opacity="0.14901961"
       empspacing="5"
       enabled="true"
       visible="true" />
  </sodipodi:namedview>
  <defs
     id="defs15">
    <radialGradient
       id="paint0_radial_550_163"
       cx="0"
       cy="0"
       r="1"
       gradientUnits="userSpaceOnUse"
       gradientTransform="translate(4.43729 6.24602) rotate(-0.130142) scale(3.21392 1.88109)">
      <stop
         stop-color="#A3BEDD"
         id="stop10" />
      <stop
         offset="1"
         stop-color="#487CBC"
         id="stop11" />
    </radialGradient>
    <radialGradient
       id="paint1_radial_550_163"
       cx="0"
       cy="0"
       r="1"
       gradientUnits="userSpaceOnUse"
       gradientTransform="translate(16.8123 6.24602) rotate(-0.130142) scale(3.21392 1.88109)">
      <stop
         stop-color="#A3BEDD"
         id="stop12" />
      <stop
         offset="1"
         stop-color="#487CBC"
         id="stop13" />
    </radialGradient>
    <radialGradient
       id="paint2_radial_550_163"
       cx="0"
       cy="0"
       r="1"
       gradientUnits="userSpaceOnUse"
       gradientTransform="translate(15.4373 21.371) rotate(-0.130142) scale(3.21392 1.88109)">
      <stop
         stop-color="#A3BEDD"
         id="stop14" />
      <stop
         offset="1"
         stop-color="#487CBC"
         id="stop15" />
    </radialGradient>
  </defs>
  <g
     inkscape:groupmode="layer"
     id="layer6"
     inkscape:label="Layer 2"
     style="display:none">
    <path
       d="M 16.9272,4.32288 H 4.323 V 16.927 h 12.6042 z"
       fill="#3465a4"
       stroke="#204a87"
       stroke-width="0.833333"
       stroke-linecap="square"
       stroke-linejoin="round"
       id="path1" />
    <path
       d="M 15.7348,5.2085 H 5.51147 V 15.7727 H 15.7348 Z"
       stroke="#ffffff"
       stroke-opacity="0.2"
       stroke-width="0.839902"
       stroke-linecap="square"
       stroke-linejoin="round"
       id="path2" />
    <path
       opacity="0.55"
       d="M 16.5249,4.99609 H 3.71436 L 9.53735,20.3769 H 22.3479 Z"
       fill="#4877b1"
       stroke="#204a87"
       stroke-width="0.882236"
       stroke-linecap="square"
       stroke-linejoin="round"
       id="path3" />
    <path
       opacity="0.55"
       d="M 15.9002,5.55103 H 5.46216 L 10.2067,19.1141 h 10.438 z"
       stroke="#ffffff"
       stroke-opacity="0.547368"
       stroke-width="0.895163"
       stroke-linecap="square"
       stroke-linejoin="round"
       id="path4" />
    <path
       d="m 4.43729,7.1919 c 1.5211,0 2.75419,-1.23302 2.75419,-2.75403 0,-1.52101 -1.23309,-2.75403 -2.75419,-2.75403 -1.52109,0 -2.75418,1.23302 -2.75418,2.75403 0,1.52101 1.23309,2.75403 2.75418,2.75403 z"
       fill="url(#paint0_radial_550_163)"
       stroke="#154384"
       stroke-width="0.993701"
       id="path5" />
    <path
       d="m 4.43311,4.36487 c 0.89207,0 1.61524,-0.49573 1.61524,-1.10724 0,-0.61151 -0.72317,-1.10724 -1.61524,-1.10724 -0.89207,0 -1.61524,0.49573 -1.61524,1.10724 0,0.61151 0.72317,1.10724 1.61524,1.10724 z"
       fill="#adc5e1"
       id="path6" />
    <path
       d="m 16.8123,7.1919 c 1.5211,0 2.7542,-1.23302 2.7542,-2.75403 0,-1.52101 -1.2331,-2.75403 -2.7542,-2.75403 -1.5211,0 -2.7542,1.23302 -2.7542,2.75403 0,1.52101 1.2331,2.75403 2.7542,2.75403 z"
       fill="url(#paint1_radial_550_163)"
       stroke="#154384"
       stroke-width="0.993701"
       id="path7" />
    <path
       d="m 16.8081,4.36487 c 0.8921,0 1.6152,-0.49573 1.6152,-1.10724 0,-0.61151 -0.7231,-1.10724 -1.6152,-1.10724 -0.8921,0 -1.6152,0.49573 -1.6152,1.10724 0,0.61151 0.7231,1.10724 1.6152,1.10724 z"
       fill="#adc5e1"
       id="path8" />
    <path
       d="m 15.4373,22.3169 c 1.5211,0 2.7542,-1.233 2.7542,-2.754 0,-1.521 -1.2331,-2.7541 -2.7542,-2.7541 -1.5211,0 -2.7542,1.2331 -2.7542,2.7541 0,1.521 1.2331,2.754 2.7542,2.754 z"
       fill="url(#paint2_radial_550_163)"
       stroke="#154384"
       stroke-width="0.993701"
       id="path9" />
    <path
       d="m 15.4331,19.4899 c 0.8921,0 1.6152,-0.4958 1.6152,-1.1073 0,-0.6115 -0.7231,-1.1072 -1.6152,-1.1072 -0.8921,0 -1.6152,0.4957 -1.6152,1.1072 0,0.6115 0.7231,1.1073 1.6152,1.1073 z"
       fill="#adc5e1"
       id="path10" />
  </g>
  <g
     inkscape:groupmode="layer"
     id="layer5"
     inkscape:label="Layer 1">
    <path
       style="fill:#ebc040;stroke:#4b3600;stroke-width:2;stroke-miterlimit:8.6;paint-order:stroke fill markers;stroke-opacity:1;fill-opacity:1"
       d="M 2,6.5622776 10,19 22,10 14,2 Z"
       id="path15"
       sodipodi:nodetypes="ccccc" />
    <g
       id="g56"
       inkscape:label="pallete"
       transform="translate(0,-1)"
       style="display:inline">
      <path
         style="fill:#153c15;stroke-width:0.5;stroke-linecap:square;paint-order:stroke fill markers"
         d="m 0,25 v 1 h 1 v -1 z"
         id="path51" />
      <path
         style="fill:#1ca011;fill-opacity:1;stroke-width:0.5;stroke-linecap:square;paint-order:stroke fill markers"
         d="m 1,25 h 1 v 1 H 1 Z"
         id="path52" />
      <path
         style="fill:#4b3600;fill-opacity:1;stroke-width:0.5;stroke-linecap:square;paint-order:stroke fill markers"
         d="m 2,25 v 1 h 1 v -1 z"
         id="path53" />
      <path
         style="fill:#d19e05;fill-opacity:1;stroke-width:0.5;stroke-linecap:square;paint-order:stroke fill markers"
         d="m 3,25 h 1 v 1 H 3 Z"
         id="path54" />
      <path
         style="fill:#ebc040;fill-opacity:1;stroke-width:0.5;stroke-linecap:square;paint-order:stroke fill markers"
         d="m 4,25 h 1 v 1 H 4 Z"
         id="path20" />
    </g>
    <path
       style="fill:#d19e05;stroke:#153c15;stroke-width:2;stroke-miterlimit:8.6;paint-order:stroke fill markers"
       d="M 2,4 Z"
       id="path16" />
    <ellipse
       style="fill:none;fill-opacity:1;stroke:#153c15;stroke-width:0.7;stroke-miterlimit:8.6;stroke-dasharray:none;stroke-opacity:1;paint-order:stroke fill markers"
       id="path17"
       cx="3.0495517"
       cy="9.750658"
       rx="1.5"
       ry="1.2"
       transform="rotate(-20.705009)" />
    <ellipse
       style="fill:none;fill-opacity:1;stroke:#153c15;stroke-width:0.7;stroke-miterlimit:8.6;stroke-dasharray:none;stroke-opacity:1;paint-order:stroke fill markers"
       id="circle18"
       cx="10.019403"
       cy="11.563877"
       rx="1.5"
       ry="1.2"
       transform="rotate(-27.800168)" />
    <ellipse
       style="fill:none;fill-opacity:1;stroke:#153c15;stroke-width:0.7;stroke-miterlimit:8.6;stroke-dasharray:none;stroke-opacity:1;paint-order:stroke fill markers"
       id="circle19"
       cx="2.7240961"
       cy="17.442287"
       rx="1.5"
       ry="1.2"
       transform="rotate(-33.47632)" />
  </g>
</svg>
