<?xml version="1.0" encoding="UTF-8" standalone="no"?>
<svg
   width="24"
   height="24"
   viewBox="0 0 24 24"
   fill="none"
   version="1.1"
   id="svg13"
   sodipodi:docname="gimp-tool-flip.svg"
   inkscape:version="1.4.2 (ebf0e940d0, 2025-05-08)"
   xmlns:inkscape="http://www.inkscape.org/namespaces/inkscape"
   xmlns:sodipodi="http://sodipodi.sourceforge.net/DTD/sodipodi-0.dtd"
   xmlns="http://www.w3.org/2000/svg"
   xmlns:svg="http://www.w3.org/2000/svg">
  <sodipodi:namedview
     id="namedview13"
     pagecolor="#ffffff"
     bordercolor="#000000"
     borderopacity="0.25"
     inkscape:showpageshadow="2"
     inkscape:pageopacity="0.0"
     inkscape:pagecheckerboard="0"
     inkscape:deskcolor="#d1d1d1"
     showgrid="true"
     inkscape:zoom="23.416667"
     inkscape:cx="11.338078"
     inkscape:cy="19.046263"
     inkscape:window-width="1366"
     inkscape:window-height="768"
     inkscape:window-x="0"
     inkscape:window-y="0"
     inkscape:window-maximized="1"
     inkscape:current-layer="svg13">
    <inkscape:grid
       id="grid13"
       units="px"
       originx="0"
       originy="0"
       spacingx="1"
       spacingy="1"
       empcolor="#0099e5"
       empopacity="0.30196078"
       color="#0099e5"
       opacity="0.14901961"
       empspacing="5"
       enabled="true"
       visible="true" />
  </sodipodi:namedview>
  <defs
     id="defs13">
    <filter
       id="filter0_f_191_64"
       x="0"
       y="15"
       width="26"
       height="10"
       filterUnits="userSpaceOnUse"
       color-interpolation-filters="sRGB">
      <feFlood
         flood-opacity="0"
         result="BackgroundImageFix"
         id="feFlood6" />
      <feBlend
         mode="normal"
         in="SourceGraphic"
         in2="BackgroundImageFix"
         result="shape"
         id="feBlend6" />
      <feGaussianBlur
         stdDeviation="1.5"
         result="effect1_foregroundBlur_191_64"
         id="feGaussianBlur6" />
    </filter>
    <linearGradient
       id="paint0_linear_191_64"
       x1="3"
       y1="11.5"
       x2="21"
       y2="11.5"
       gradientUnits="userSpaceOnUse">
      <stop
         stop-color="#3465A4"
         id="stop6" />
      <stop
         offset="0.55"
         stop-color="#4C7BB5"
         id="stop7" />
      <stop
         offset="0.595"
         stop-color="#729FCF"
         id="stop8" />
      <stop
         offset="1"
         stop-color="#9DBDDD"
         id="stop9" />
    </linearGradient>
    <radialGradient
       id="paint1_radial_191_64"
       cx="0"
       cy="0"
       r="1"
       gradientUnits="userSpaceOnUse"
       gradientTransform="translate(12 11.5) rotate(90) scale(3 6)">
      <stop
         stop-color="#B8C8D9"
         stop-opacity="0.45"
         id="stop10" />
      <stop
         offset="0.87"
         stop-color="#EEEEEC"
         id="stop11" />
    </radialGradient>
    <radialGradient
       id="paint2_radial_191_64"
       cx="0"
       cy="0"
       r="1"
       gradientUnits="userSpaceOnUse"
       gradientTransform="translate(12 11.5) rotate(90) scale(2.5 6)">
      <stop
         stop-color="#83A1C4"
         id="stop12" />
      <stop
         offset="1"
         stop-color="#BAC6D5"
         stop-opacity="0.75"
         id="stop13" />
    </radialGradient>
    <clipPath
       id="clip0_191_64">
      <rect
         width="24"
         height="24"
         fill="white"
         id="rect13" />
    </clipPath>
    <mask
       id="path-4-outside-1_218_133"
       maskUnits="userSpaceOnUse"
       x="16"
       y="5"
       width="7"
       height="8"
       fill="#000000">
      <rect
         fill="#ffffff"
         x="16"
         y="5"
         width="7"
         height="8"
         id="rect3" />
      <path
         d="m 19,6 h -2 v 1 h 2 V 9 H 17 V 9.5 L 19.5,12 22,9.5 V 9 H 20 V 7 Z"
         id="path3" />
    </mask>
  </defs>
  <g
     id="g56"
     inkscape:label="pallete"
     transform="translate(0,-1)"
     style="display:inline">
    <path
       style="fill:#153c15;stroke-width:0.5;stroke-linecap:square;paint-order:stroke fill markers"
       d="m 0,25 v 1 h 1 v -1 z"
       id="path51" />
    <path
       style="fill:#1ca011;fill-opacity:1;stroke-width:0.5;stroke-linecap:square;paint-order:stroke fill markers"
       d="m 1,25 h 1 v 1 H 1 Z"
       id="path52" />
    <path
       style="fill:#4b3600;fill-opacity:1;stroke-width:0.5;stroke-linecap:square;paint-order:stroke fill markers"
       d="m 2,25 v 1 h 1 v -1 z"
       id="path53" />
    <path
       style="fill:#d19e05;fill-opacity:1;stroke-width:0.5;stroke-linecap:square;paint-order:stroke fill markers"
       d="m 3,25 h 1 v 1 H 3 Z"
       id="path54" />
    <path
       style="fill:#ebc040;fill-opacity:1;stroke-width:0.5;stroke-linecap:square;paint-order:stroke fill markers"
       d="m 4,25 h 1 v 1 H 4 Z"
       id="path20" />
  </g>
  <rect
     style="fill:#1ca011;fill-opacity:1;stroke:#153c15;stroke-width:2;stroke-linecap:square;stroke-dasharray:none;stroke-opacity:1;paint-order:stroke fill markers"
     id="rect14"
     width="1"
     height="18"
     x="-6"
     y="3" />
  <path
     style="fill:#ebc040;stroke:#4b3600;stroke-width:2;stroke-linecap:square;stroke-linejoin:miter;stroke-miterlimit:8.6;stroke-dasharray:none;stroke-opacity:1;paint-order:stroke fill markers"
     d="M 15,18 V 7 l 5,11 z"
     id="path15"
     sodipodi:nodetypes="cccc" />
  <path
     style="fill:#d19e05;fill-opacity:1;stroke:#4b3600;stroke-width:2;stroke-linecap:square;stroke-linejoin:miter;stroke-miterlimit:8.6;stroke-dasharray:none;stroke-opacity:1;paint-order:stroke fill markers"
     d="M 9,18 V 7 L 4,18 Z"
     id="path16"
     sodipodi:nodetypes="cccc" />
  <g
     id="g19"
     inkscape:label="reflection line">
    <path
       style="fill:#1ca011;fill-opacity:1;stroke:#1ca011;stroke-width:2;stroke-linecap:butt;stroke-linejoin:miter;stroke-miterlimit:8.6;stroke-dasharray:none;stroke-dashoffset:0;stroke-opacity:1;paint-order:stroke fill markers"
       d="M 12,20 V 1"
       id="path19"
       sodipodi:nodetypes="cc" />
    <path
       style="fill:#1ca011;fill-opacity:1;stroke:#153c15;stroke-width:2;stroke-linecap:butt;stroke-linejoin:miter;stroke-miterlimit:8.6;stroke-dasharray:3, 1;stroke-dashoffset:0;stroke-opacity:1;paint-order:stroke fill markers"
       d="M 12,20 V 1"
       id="path18"
       sodipodi:nodetypes="cc" />
  </g>
  <path
     id="path21"
     style="fill:#ffffff;fill-opacity:1;stroke:none;stroke-width:2;stroke-linecap:butt;stroke-linejoin:miter;stroke-miterlimit:8.6;stroke-dasharray:none;stroke-dashoffset:0;stroke-opacity:1;paint-order:stroke fill markers"
     d="m 10.463668,18.000009 c -0.265165,0 -0.5194916,0.10543 -0.7070306,0.292969 l -0.353516,0.353516 c -0.390521,0.390521 -0.390535,1.023527 0,1.414062 H 7.9890593 l -0.707031,0.708985 -0.707032,0.707031 0.707032,0.707031 1.4140621,1.414063 c 0.187525,0.187524 0.441845,0.29299 0.707031,0.292968 h 1.4140626 c 0.265193,-2.8e-5 0.519492,-0.10543 0.707031,-0.292968 l 0.707031,-0.707032 0.707032,0.707032 c 0.390535,0.390535 1.025487,0.390528 1.416015,0 l 0.353516,-0.353516 c 0.187539,-0.187539 0.292969,-0.441866 0.292969,-0.707031 v -3.53711 c 0,-0.55225 -0.44775,-1 -1,-1 z"
     inkscape:label="arrow bg" />
  <path
     d="M 17,6 H 16 V 5 h 1 z m 2,0 V 5 c 0.2652,0 0.5196,0.10536 0.7071,0.29289 z m 1,1 0.7071,-0.70711 C 20.8946,6.48043 21,6.73478 21,7 Z m 0,2 v 1 C 19.4477,10 19,9.55228 19,9 Z m 2,0 V 8 c 0.5523,0 1,0.44771 1,1 z m -5,0 h -1 c 0,-0.55228 0.4477,-1 1,-1 z m 2,0 h 1 c 0,0.55228 -0.4477,1 -1,1 z M 19,7 V 6 c 0.5523,0 1,0.44772 1,1 z M 17,7 V 8 L 16,7 Z m 5,2.5 h 1 c 0,0.26522 -0.1054,0.5196 -0.2929,0.7071 z m -2.5,2.5 0.7071,0.7071 c -0.3905,0.3905 -1.0237,0.3905 -1.4142,0 z M 17,9.5 16.2929,10.2071 C 16.1054,10.0196 16,9.76522 16,9.5 Z M 17,5 h 2 v 2 h -2 z m 2.7071,0.29289 1,1 -1.4142,1.41422 -1,-1 z M 21,7 V 9 H 19 V 7 Z m -1,1 h 2 v 2 h -2 z m -3,0 h 2 v 2 h -2 z m 1,1 V 7 h 2 V 9 Z M 19,8 H 17 V 6 h 2 z M 16,7 V 6 h 2 v 1 z m 7,2 V 9.5 H 21 V 9 Z m -0.2929,1.2071 -2.5,2.5 -1.4142,-1.4142 2.5,-2.50001 z m -3.9142,2.5 -2.5,-2.5 1.4142,-1.41421 2.5,2.50001 z M 16,9.5 V 9 h 2 v 0.5 z"
     fill="#3465a4"
     mask="url(#path-4-outside-1_218_133)"
     id="path5"
     style="display:inline;fill:#153c15;fill-opacity:1"
     inkscape:label="arrow"
     transform="matrix(0.70710678,0.70710678,0.70710678,-0.70710678,-8.2738732,13.696699)" />
</svg>
