<?xml version="1.0" encoding="UTF-8" standalone="no"?>
<svg
   viewBox="0 0 15.999999 16"
   id="svg7384"
   height="16"
   width="16"
   version="1.1"
   inkscape:version="1.4.2 (ebf0e940d0, 2025-05-08)"
   sodipodi:docname="gimp-tool-mypaint-brush-symbolic.svg"
   xmlns:inkscape="http://www.inkscape.org/namespaces/inkscape"
   xmlns:sodipodi="http://sodipodi.sourceforge.net/DTD/sodipodi-0.dtd"
   xmlns:xlink="http://www.w3.org/1999/xlink"
   xmlns="http://www.w3.org/2000/svg"
   xmlns:svg="http://www.w3.org/2000/svg"
   xmlns:rdf="http://www.w3.org/1999/02/22-rdf-syntax-ns#"
   xmlns:cc="http://creativecommons.org/ns#"
   xmlns:dc="http://purl.org/dc/elements/1.1/">
  <sodipodi:namedview
     pagecolor="#ffffff"
     bordercolor="#666666"
     borderopacity="1"
     objecttolerance="10"
     gridtolerance="10"
     guidetolerance="10"
     inkscape:pageopacity="0"
     inkscape:pageshadow="2"
     inkscape:window-width="1334"
     inkscape:window-height="736"
     id="namedview1509"
     showgrid="false"
     inkscape:zoom="33.028092"
     inkscape:cx="12.655893"
     inkscape:cy="10.960367"
     inkscape:window-x="0"
     inkscape:window-y="0"
     inkscape:window-maximized="0"
     inkscape:current-layer="gimp-tool-mypaint-brush"
     inkscape:showpageshadow="2"
     inkscape:pagecheckerboard="0"
     inkscape:deskcolor="#d1d1d1" />
  <metadata
     id="metadata90">
    <rdf:RDF>
      <cc:Work
         rdf:about="">
        <dc:format>image/svg+xml</dc:format>
        <dc:type
           rdf:resource="http://purl.org/dc/dcmitype/StillImage" />
        <dc:contributor>
          <cc:Agent>
            <dc:title>Barbara Muraus, Jakub Steiner, Klaus Staedtler</dc:title>
          </cc:Agent>
        </dc:contributor>
        <dc:description>Images originally created as the &quot;Art Libre&quot; icon set. Extended and adopted for GIMP</dc:description>
      </cc:Work>
    </rdf:RDF>
  </metadata>
  <defs
     id="defs7386">
    <linearGradient
       id="linearGradient8074"
       inkscape:swatch="solid">
      <stop
         id="stop8072"
         offset="0"
         style="stop-color:#be00be;stop-opacity:1;" />
    </linearGradient>
    <linearGradient
       id="linearGradient7561"
       inkscape:swatch="solid">
      <stop
         id="stop7558"
         offset="0"
         style="stop-color:#a5a5a5;stop-opacity:1;" />
    </linearGradient>
    <linearGradient
       id="linearGradient7548"
       inkscape:swatch="solid">
      <stop
         id="stop7546"
         offset="0"
         style="stop-color:#ebebeb;stop-opacity:1;" />
    </linearGradient>
    <linearGradient
       id="linearGradient7542"
       inkscape:swatch="solid">
      <stop
         id="stop7538"
         offset="0"
         style="stop-color:#c9c9c9;stop-opacity:1;" />
    </linearGradient>
    <linearGradient
       gradientTransform="matrix(0,-735328.32,170712.69,0,2464326300,577972450)"
       id="linearGradient19282"
       inkscape:swatch="solid">
      <stop
         id="stop19284"
         offset="0"
         style="stop-color:#b4b4b4;stop-opacity:1;" />
    </linearGradient>
    <linearGradient
       gradientTransform="matrix(0.34682586,0,0,0.30620888,-154.35207,-275.32368)"
       id="linearGradient19282-4"
       inkscape:swatch="solid">
      <stop
         id="stop19284-0"
         offset="0"
         style="stop-color:#bebebe;stop-opacity:1;" />
    </linearGradient>
    <linearGradient
       gradientTransform="matrix(0.72755773,0,0,0.70587563,474.49113,1143.5133)"
       gradientUnits="userSpaceOnUse"
       y2="128.99879"
       x2="-350.50864"
       y1="128.99879"
       x1="-372.50003"
       id="linearGradient10420-7"
       xlink:href="#linearGradient19282-4" />
    <linearGradient
       gradientTransform="matrix(0.73160185,0,0,0.66630864,475.96377,1148.7874)"
       gradientUnits="userSpaceOnUse"
       y2="140.00002"
       x2="-351.26791"
       y1="140.00002"
       x1="-371.77078"
       id="linearGradient10414-0"
       xlink:href="#linearGradient19282-4" />
    <linearGradient
       gradientTransform="matrix(1.3580927,0,0,1.2050329,-169.11674,221.89328)"
       y2="881.35822"
       x2="327.19907"
       y1="881.35822"
       x1="316"
       gradientUnits="userSpaceOnUse"
       id="linearGradient8577"
       xlink:href="#linearGradient19282-4" />
  </defs>
  <g
     transform="translate(87.157828,-255.7317)"
     style="display:inline"
     id="tools">
    <g
       id="gimp-tool-mypaint-brush"
       transform="translate(-87.157828,-780.63048)">
      <path
         style="color:#000000;display:none;overflow:visible;visibility:visible;opacity:0.25;fill:url(#linearGradient10420-7);fill-opacity:1;fill-rule:nonzero;stroke:none;stroke-width:1.43327;marker:none;enable-background:accumulate"
         d="M 1.1414218,1037.3622 C 0.50907217,1037.3622 0,1037.7949 0,1038.3324 v 10.0596 c 0,0.5376 0.50907217,0.9702 1.1414218,0.9702 H 14.838481 c 0.632351,0 1.161519,-0.4326 1.161519,-0.9702 v -10.0352 c -0.463913,0.4756 -0.922522,1.184 -1.3042,1.5437 -0.344789,0.325 -0.679246,0.6303 -0.998739,0.9096 h -0.03558 c -1.022001,0.9207 -2.582561,2.2057 -4.5300147,3.608 0.082105,0.4904 0.1136809,1.0074 -0.1783463,1.4855 -0.3515777,0.5758 -1.0345435,1.0309 -1.8904788,1.2129 -0.7356627,0.1563 -1.5645038,0.2566 -2.3541804,0.2122 -0.3948384,-0.022 -0.7767917,-0.069 -1.1770939,-0.2122 -0.4002951,-0.1431 -0.9141545,-0.4579 -1.0700775,-1.0007 -0.1777568,-0.6127 0.3633133,-1.206 1.1057496,-1.2126 0.222349,10e-5 0.2334224,-0.025 0.2853482,-0.061 0.051875,-0.036 0.1416046,-0.1474 0.2496905,-0.3335 0.2161502,-0.3722 0.2972147,-1.1133 1.2841031,-1.6676 0.4304887,-0.2417 0.921852,-0.307 1.3911123,-0.3032 1.1478387,-1.3896 2.4183364,-3.1346 3.7809429,-4.418 -7.27e-4,7e-4 0.03332,-0.027 0.03558,-0.03 l 0.570623,-0.5155 c 0.01513,-0.014 0.02088,-0.015 0.03558,-0.03 0.0894,-0.083 0.138396,-0.1138 0.214018,-0.1819 H 1.1412471 Z"
         id="rect23745-5"
         inkscape:connector-curvature="0" />
      <path
         style="color:#000000;font-style:normal;font-variant:normal;font-weight:normal;font-stretch:normal;font-size:medium;line-height:normal;font-family:Sans;-inkscape-font-specification:Sans;text-indent:0;text-align:start;text-decoration:none;text-decoration-line:none;letter-spacing:normal;word-spacing:normal;text-transform:none;writing-mode:lr-tb;direction:ltr;baseline-shift:baseline;text-anchor:start;display:inline;overflow:visible;visibility:visible;fill:url(#linearGradient10414-0);fill-opacity:1;stroke:none;stroke-width:1.39638;marker:none;enable-background:accumulate;opacity:1"
         d="m 0.97675672,1049.8622 -0.35118354,0.5604 a 1.2566099,1.0026633 0 1 0 2.26323212,0.8719 l 0.8974779,-1.4323 z m 11.23809928,0 0.897485,1.4323 a 1.2566094,1.002663 0 0 0 2.263231,-0.8719 l -0.351205,-0.5604 z"
         id="path23225-6"
         inkscape:connector-curvature="0"
         inkscape:label="legs" />
      <path
         d="m 15.447266,1037.6981 c -0.387197,0.4054 -0.748372,0.7674 -1.080078,1.0938 -0.436954,0.4299 -0.818047,0.8345 -1.144532,1.1308 -1.303375,1.2271 -3.2545553,2.8819 -5.941406,4.8574 0.086171,0.1266 0.1738615,0.2504 0.2109375,0.377 0.2618267,0.8946 -0.1514193,1.9545 -1.5273438,2.2598 -1.4577225,0.3233 -3.6207272,0.3482 -3.8203124,-0.377 2.1078822,7e-4 1.9062423,-2.1501 2.9296874,-2.75 0.5559354,-0.3258 1.0634615,-0.2935 1.484375,-0.1113 1.4512036,-1.8812 3.1949341,-3.9109 4.9667973,-5.6485 l 0.677734,-0.6777 c 0.17075,-0.171 0.366649,-0.3268 0.554688,-0.4902 H 1.5 c -0.831,0 -1.5,0.669 -1.5,1.5 v 9 c 0,0.831 0.669,1.5 1.5,1.5 h 13 c 0.831,0 1.5,-0.669 1.5,-1.5 v -9 c 0,-0.4713 -0.214917,-0.8895 -0.552734,-1.1641 z"
         style="display:inline;opacity:1;fill:#bebebe;stroke-width:0.86;stroke-miterlimit:8.6;stroke-dasharray:1.29001;stroke-opacity:0.7973;paint-order:stroke fill markers"
         id="path1" />
    </g>
  </g>
</svg>
